<svg xmlns="http://www.w3.org/2000/svg" viewBox="0 0 142.92 140.33"><defs><style>.cls-1{fill:#dee1a0;}.cls-2{fill:#32323b;}.cls-3{fill:#feda80;}.cls-4{fill:#f1b250;}.cls-5{fill:#fd9861;}.cls-6{fill:#fdd27d;}.cls-7{fill:#ffd27d;}.cls-8{fill:#484852;}.cls-9{fill:#f2b46b;}.cls-10{fill:#fdfdfc;}.cls-11{fill:#fdfcfb;}.cls-12{fill:#ec201c;}.cls-13{fill:#fddfa2;}.cls-14{fill:#a5a352;}.cls-15{fill:#625a5d;}.cls-16{fill:#c5c36f;}.cls-17{fill:#ebeef1;}.cls-18{fill:#524951;}.cls-19{isolation:isolate;font-size:16.75px;fill:#c42121;font-family:ReggaeOne-Regular, Reggae One;}</style></defs><g id="Layer_2" data-name="Layer 2"><g id="Layer_1-2" data-name="Layer 1"><g id="Layer_2-2" data-name="Layer 2"><g id="Layer_1-2-2" data-name="Layer 1-2"><path class="cls-1" d="M134.92,122.21a9.13,9.13,0,0,1-.3,2,11.81,11.81,0,0,1-.76,2,12.44,12.44,0,0,1-1.53,2.28,20,20,0,0,1-2.74,2.66,14.69,14.69,0,0,1-1.37,1c-.46.31-.84.54-1.29.84a19.15,19.15,0,0,1-3,1.6c-1.15.53-2.29,1-3.43,1.45-.76.3-1.45.53-2.21.76a35,35,0,0,1-3.88,1.06l-2.82.69a13.72,13.72,0,0,1-1.9.3l-.31.08-1.37.23a5.64,5.64,0,0,1-1.21.15,6.53,6.53,0,0,1-1.3.15.66.66,0,0,0-.38.08.24.24,0,0,0-.15.08,16.45,16.45,0,0,1-2,.07,2,2,0,0,0-.69.08h-5a6.57,6.57,0,0,0-1.29-.08,2.8,2.8,0,0,1-.76-.07H95a2.66,2.66,0,0,1-.83-.08H94a3,3,0,0,1-.84-.08H93a2.76,2.76,0,0,1-.76-.07,7.15,7.15,0,0,1-1.22-.08c-.23,0-.54-.07-.76-.07L88.55,139a3.82,3.82,0,0,0-1-.08,2,2,0,0,1-.76-.15,18.81,18.81,0,0,1-2.13-.38,19.81,19.81,0,0,0-2-.31,8.74,8.74,0,0,1-1.68-.23,5.57,5.57,0,0,1-1.14-.15h-.3a1,1,0,0,1-.46-.07c-.08,0-.23-.08-.3-.08a2.73,2.73,0,0,1-.84-.08h-.46a4,4,0,0,1-.91-.07H73.17a1.08,1.08,0,0,0-.46.07h-.15a9.68,9.68,0,0,0-1.52.08,4.88,4.88,0,0,0-1.45.23c-1.37.3-2.66.53-4,.84-.84.22-1.68.38-2.52.53l-1.44.23-1.22.23a5.63,5.63,0,0,1-1.07.15,3.74,3.74,0,0,0-1,.15c-.3.08-.68.08-1.06.15s-.92.08-1.3.15h-.38a1.61,1.61,0,0,0-.61.08h-.15c-.53,0-1.06.08-1.6.08H49a1.23,1.23,0,0,1-.53-.08h-.15c-.46,0-.91-.08-1.3-.08L45.76,140c-.91-.23-1.83-.46-2.74-.76a16.13,16.13,0,0,1-2-.84,9.47,9.47,0,0,1-1.45-.76l-2.05-1.15c-.23-.15-.54-.3-.76-.45l-1.37-.69c-.31-.15-.54-.3-.84-.45a.27.27,0,0,0-.23-.08c-1.07-.46-2.13-1-3.2-1.37a32.21,32.21,0,0,0-4-1.14c-.91-.23-1.9-.46-2.82-.61a10.88,10.88,0,0,0-1.59-.23c-.38-.08-.77-.08-1.15-.15s-.91,0-1.37-.16h-.38A3.33,3.33,0,0,1,19,131h-.46a5.47,5.47,0,0,1-1.14-.08h-.77a9.71,9.71,0,0,1-2.13-.23,6.9,6.9,0,0,1-1.44-.38,3.07,3.07,0,0,1-.77-.3,12.85,12.85,0,0,1-5.17-3.66A9.84,9.84,0,0,1,5,122.13a5.65,5.65,0,0,1-.15-1.22v-1.06l.76.53a8.36,8.36,0,0,0,1.6.91,17.43,17.43,0,0,0,2.59.92,13.66,13.66,0,0,0,2.43.45,2.94,2.94,0,0,0,1.14.08,19,19,0,0,0,2,.15,8.2,8.2,0,0,0,2,0h.23a2.49,2.49,0,0,1,.76-.08h.92c.38-.07.83-.07,1.22-.15a18.25,18.25,0,0,0,2.2-.3l2.21-.46c1.14-.3,2.29-.53,3.43-.91l3-.92,3.65-1.37c.92-.3,1.83-.68,2.74-1.06a1.24,1.24,0,0,1,.76-.23V118a2.46,2.46,0,0,1,.08.76,10.29,10.29,0,0,0,.23,2.13,7.31,7.31,0,0,0,2.74,4.57,9.77,9.77,0,0,0,4.19,2,13.72,13.72,0,0,0,1.9.3,17.9,17.9,0,0,0,2.13.16,7.1,7.1,0,0,0,1.3-.08,8.23,8.23,0,0,1,1.44-.08,17.25,17.25,0,0,0,1.76-.22,2.55,2.55,0,0,0,.83-.16,1.82,1.82,0,0,1,1.07-.15c.23,0,.46.08.68.08h2.52a9.89,9.89,0,0,0,1.44-.16c.46-.07.84-.07,1.22-.15a5.73,5.73,0,0,0,1.6-.38,10.59,10.59,0,0,0,2.44-1.29,28.37,28.37,0,0,0,2.43-1.91,29.74,29.74,0,0,0,2.29-2.2c.53-.61,1.14-1.15,1.67-1.83s1.07-1.22,1.6-1.83,1.22-1.45,1.83-2.21a.36.36,0,0,0,.15-.23h.23c0,.16,0,.23.08.31a4.64,4.64,0,0,0,.53,1.07l2.36,4.87c.46,1,.91,1.9,1.37,2.89l.38.84a.43.43,0,0,0,.38.23l1.75.07a1,1,0,0,0,.16.46c.3,1.22.68,2.36,1,3.58.15.68.38,1.37.6,2.05.08.23.08.23.31.23h24.74c.23,0,.23,0,.23-.23V131a6.36,6.36,0,0,0-1.06-2.67,6.54,6.54,0,0,0-2.59-2.13,9.78,9.78,0,0,0-4.65-1.14h-.38a1.49,1.49,0,0,1-.76.23,4.35,4.35,0,0,0-2,1.22c-.16,0-.23,0-.31-.16.23-.22.46-.38.69-.61a5.55,5.55,0,0,1,1.82-.83c.16,0,.23-.08.16-.31-.16-.45-.38-.91-.54-1.37l-1.29-3.35c.07-.07.15-.23.3-.23a1.19,1.19,0,0,0,.38-.23.26.26,0,0,0,.08-.22,8.92,8.92,0,0,1-.15-1.45h.15c1.29.3,2.59.68,3.88,1.07l5,1.59c1.52.46,3,.92,4.57,1.3a40.36,40.36,0,0,0,4.11.91c.68.15,1.37.23,2,.38l1.53.23,1.44.15c.77.08,1.6.08,2.36.16,1,.07,2.06-.08,3-.08h.08l2-.23a18.61,18.61,0,0,0,2.06-.38A11.86,11.86,0,0,0,134.92,122.21Z"/><path class="cls-2" d="M55,76.37c-.15-.38-.3-.76-.45-1.07a20.45,20.45,0,0,1-1.37-4.87,13.76,13.76,0,0,1,.15-5.86,11,11,0,0,1,3.81-5.94,15.35,15.35,0,0,1,3.57-2.21,1.08,1.08,0,0,0,.54-.46,6.19,6.19,0,0,1,1.67-1.75,10.33,10.33,0,0,1,3.58-1.6,17.78,17.78,0,0,1,5-.45,15.24,15.24,0,0,1,2.66.22,14.7,14.7,0,0,1,9.52,5.18,17.12,17.12,0,0,1,1.45,1.91c.08.15.23.3.3.45a30.46,30.46,0,0,1,5.33,9.44,14.16,14.16,0,0,0,1.3,2.9,11.4,11.4,0,0,0,6.47,5.1,15.7,15.7,0,0,0,3.81.68,47.29,47.29,0,0,0,5.71.16c1.14,0,2.21,0,3.35.07a24,24,0,0,1,6.09,1.07,13.19,13.19,0,0,1,2.36,1.06,5.85,5.85,0,0,1,1.06.84l.23.23v.15h-.15a.07.07,0,0,1-.08-.07,9.66,9.66,0,0,0-3.35-1.91,16.17,16.17,0,0,0-3.88-.91,41.42,41.42,0,0,0-5.33-.31h-4a20.72,20.72,0,0,1-5.33-.68A11.89,11.89,0,0,1,93.81,75a11.05,11.05,0,0,1-2.67-3.81c-.23-.53-.46-1.14-.69-1.67a26.46,26.46,0,0,0-3.35-6.78c-.07-.08-.07-.15-.15-.23a5,5,0,0,0-.68-1h-.08c.23.46.38.84.61,1.22A65.37,65.37,0,0,1,90,71.57,7.76,7.76,0,0,0,90.53,73a8.84,8.84,0,0,0,4.11,4.19,17.1,17.1,0,0,0,3.89,1.37c1.52.38,3,.61,4.49.91,2.21.38,4.41.76,6.62,1.3a28.13,28.13,0,0,1,3.43,1.06,12.38,12.38,0,0,1,5.86,4.57c0,.08.08.08.08.15l.07.15A11,11,0,0,1,120.76,92a1.82,1.82,0,0,0,.07.61,1.63,1.63,0,0,1-.07.61,6.4,6.4,0,0,1-.23,1.67,9.15,9.15,0,0,1-2.36,4.27,8.86,8.86,0,0,1-2.74,1.75,6.39,6.39,0,0,0-2.51,2l-.46.68a.43.43,0,0,0-.23.38,1.51,1.51,0,0,0-.3.46l-.92,2.28c-.45,1.22-.83,2.52-1.29,3.73a14.07,14.07,0,0,1-1.75,3.35,8.9,8.9,0,0,1-4,3.13,11.67,11.67,0,0,1-3.58.83h-1a.44.44,0,0,0-.08-.3c-.23-1.45-.53-3-.91-4.42a85.88,85.88,0,0,0-3-10.73,49.93,49.93,0,0,0-3.57-7.92l-.08-.15c-.08-.16,0-.16.08-.23h.07a5.39,5.39,0,0,0,3-4.11A8.63,8.63,0,0,0,94.72,87a19,19,0,0,0-1.37-4,37.09,37.09,0,0,0-3.28-5.56,88.24,88.24,0,0,0-10-12,.45.45,0,0,0-.38-.23c-.23,0-.15-.08-.15-.23s-.08-.15-.08-.23L79,62.82A10.56,10.56,0,0,0,77.66,60a5.85,5.85,0,0,0-2.43-2.06,4,4,0,0,0-3.58.16,2,2,0,0,0-1,1c0,.07-.08.15,0,.22A6.85,6.85,0,0,1,71.8,59a8,8,0,0,1,3,.38c.08,0,.15.08.23.08s.07.07.07.15a.16.16,0,0,1-.15.15h0c-.15,0-.3-.08-.45-.08a6,6,0,0,0-2.29-.22,4.32,4.32,0,0,0-1,.15,1.55,1.55,0,0,0-1.06,1.6c0,.07.07.15.15.07h.07a5.52,5.52,0,0,1,2.74-.53h.31a.16.16,0,0,1,.15.15.15.15,0,0,1-.15.15h-.31a7,7,0,0,0-1.29.08,3.49,3.49,0,0,0-1.45.53,1.7,1.7,0,0,0-.68.77c-.23.6,0,.91.61.91a3.23,3.23,0,0,0,1.22-.23c.15-.08.38-.15.53-.23s.23,0,.23.08v.23a3.72,3.72,0,0,0,1.14,3A1.89,1.89,0,0,0,75,67h.23a.16.16,0,0,1,0,.31l-.23.07a.27.27,0,0,0-.23.08c-.08.08,0,0,0,.08l1.14,2.28a.42.42,0,0,0,.23.38,2.2,2.2,0,0,0,.31.61l.53,1a.55.55,0,0,0,.15.38c.3.61.61,1.22.91,1.75a.41.41,0,0,0,.16.31,2.17,2.17,0,0,0,.38.76c.38.68.68,1.45,1.06,2.13.16.31.38.69.54,1a.42.42,0,0,0,.22.38,2.51,2.51,0,0,0,.31.61.4.4,0,0,0,.15.3c0,.08,0,.16.08.16.45.76.83,1.52,1.22,2.28.53.91,1,1.83,1.59,2.74,0,.08.08.08.08.15s0,.16-.08.16h0c-.07.07-.15.07-.15,0a1.64,1.64,0,0,1-.3-.46c-.69-1.14-1.37-2.28-2-3.43a.51.51,0,0,1-.15-.3c-.08-.08-.16-.15-.23-.15L79.11,80V80c0-.23,0-.23-.23-.31l-1.29-.3c-1.6-.31-3.2-.61-4.72-.92l-4.5-.76a3.33,3.33,0,0,0-.83-.07c-.08-.08-.23-.08-.38-.15-.54-.08-.54-.08-.77.45l-.6,1.52a.58.58,0,0,1-.16.31c-.07.08-.15.15-.23.08a.31.31,0,0,1-.07-.23v-.08c.07-.23.23-.53.3-.84.23-.53.38-1,.61-1.52.15-.3.15-.3-.15-.46a6.35,6.35,0,0,1-1.29-.76l-.08-.23c-.08-.15-.15-.22-.31-.22A9,9,0,0,1,63,73.93a7.7,7.7,0,0,1-.83-1.29c-.08-.15-.16-.15-.23,0a1.07,1.07,0,0,0-.23.53l-.76,2a14.72,14.72,0,0,1-.84,2c-.08.15-.23.23-.3.15s-.08-.15-.08-.3.15-.31.08-.46l-2.29-.07a.31.31,0,0,0-.23.07H56A5,5,0,0,1,55,76.37ZM72,63.43a.48.48,0,0,0-.3.07,3.33,3.33,0,0,1-1.75.23c-.08,0-.23,0-.23.08a7.59,7.59,0,0,1-.69.83,19.69,19.69,0,0,1-4.49,4l-.15.08c-.08.08-.08.08,0,.15a.29.29,0,0,1,.07.15v.16h-.15c-.07-.08-.15-.08-.23-.16a1.52,1.52,0,0,0-.76-.45.7.7,0,0,0-.91.3.83.83,0,0,0-.08.84,2,2,0,0,0,.92.91c.07,0,.15.08.23.15v.16c0,.07-.08.07-.16.07h0a.31.31,0,0,1-.23-.07,1.72,1.72,0,0,1-1-.92c-.07-.15-.15-.15-.38-.07s-.07.15-.07.23a10,10,0,0,0,2.81,4.72,7.33,7.33,0,0,0,4,2,4.27,4.27,0,0,0,3.81-1.3,6.25,6.25,0,0,0,1.52-2.43,12.12,12.12,0,0,0,.61-2.82,8.63,8.63,0,0,0-.15-2.82c0-.15-.08-.23-.23-.3a4.17,4.17,0,0,1-1.9-2.67A5.69,5.69,0,0,1,72,63.43Z"/><path class="cls-3" d="M38.37,117.26a1.24,1.24,0,0,0-.76.23c-.91.3-1.82.68-2.74,1.06l-3.65,1.37-3,.92c-1.14.38-2.29.6-3.43.91l-2.21.46c-.76.15-1.44.22-2.2.3-.39.08-.84.08-1.22.15h-.92a2.49,2.49,0,0,0-.76.08h-.23a9.36,9.36,0,0,1-2,0,17.51,17.51,0,0,1-2-.15c-.38,0-.76-.08-1.14-.08a12.59,12.59,0,0,1-2.43-.46,13.93,13.93,0,0,1-2.59-.91,6.68,6.68,0,0,1-1.6-.91l-.76-.54a8.85,8.85,0,0,1-1.3-1.14,13.5,13.5,0,0,1-2.89-4.8,9.71,9.71,0,0,1-.46-2.13c0-.38-.07-.76-.07-1.06a8,8,0,0,1-.08-1.3c.08-.61.08-1.14.15-1.75l.46-2.36a10.29,10.29,0,0,1,.61-1.67,13.55,13.55,0,0,1,1.83-3.28,18.6,18.6,0,0,1,1.52-1.9c.3-.31.61-.69.91-1a23.07,23.07,0,0,1,3.43-2.67c.76-.45,1.45-.83,2.28-1.22a31.91,31.91,0,0,1,3.43-1.29,17.86,17.86,0,0,1,2.21-.53l1.6-.23a6.35,6.35,0,0,0,1.21-.15h.08a12.31,12.31,0,0,1,1.68-.08h3.42a.94.94,0,0,0,.46.08,6.36,6.36,0,0,1,1.22.15,3.33,3.33,0,0,1,.83.07,9.34,9.34,0,0,1,1.37.31,26.32,26.32,0,0,1,3.28.84,26.81,26.81,0,0,1,3.2,1.22,26.66,26.66,0,0,1,3.27,1.59,3,3,0,0,0,.53.23,4.87,4.87,0,0,1-.15,1c-.15.76-.23,1.6-.38,2.36-.08.61-.15,1.3-.23,1.91s-.15,1.06-.15,1.6a21.32,21.32,0,0,0-2.21-.39c-.91-.15-1.75-.22-2.66-.3a21.91,21.91,0,0,0-2.29-.08H28a10.72,10.72,0,0,0-1.6.08,4.44,4.44,0,0,1-1,.08l-1.67.22c-.77.08-1.6.31-2.36.46a33.73,33.73,0,0,0-4,1.22,32.18,32.18,0,0,0-4.88,2.36A26.19,26.19,0,0,0,7,110.56c-.15.22-.38.45-.53.68a.15.15,0,0,0,0,.23.23.23,0,0,0,.31,0c.07-.08.15-.08.15-.15.23-.23.46-.54.68-.76s.61-.54.92-.84a27.13,27.13,0,0,1,2.89-2.29c.69-.45,1.45-.91,2.13-1.37a22.36,22.36,0,0,1,3.05-1.44,26.93,26.93,0,0,1,3.58-1.22,35.66,35.66,0,0,1,4.18-.91c.92-.16,1.76-.23,2.67-.31a19,19,0,0,1,2.13-.08,22,22,0,0,1,2.29.08,21.82,21.82,0,0,0,2.28.15h.15l1.3.16,1.14.15,1.75.15c0,.91,0,1.83-.08,2.74V112a2.49,2.49,0,0,1,.08.76V114a7.93,7.93,0,0,1,.08,1.37v.23A6.41,6.41,0,0,1,38.37,117.26Z"/><path class="cls-4" d="M112.54,103.48a1.31,1.31,0,0,1,.45-.69,5.38,5.38,0,0,1,2.52-2,8.11,8.11,0,0,0,2.74-1.75,8.34,8.34,0,0,0,2.43-4.26,5.73,5.73,0,0,0,.23-1.68,1.41,1.41,0,0,1,.08-.61h1.29a7.54,7.54,0,0,0,1.3.08h.22a9.24,9.24,0,0,0,1.38.15c.3.08.68.08,1,.15.84.15,1.6.31,2.44.53,1.07.31,2.06.69,3.05,1.07a4,4,0,0,0,.83.31c.08.15.23.15.39.22a15.59,15.59,0,0,1,3,1.91,20.86,20.86,0,0,1,3.89,4,16.43,16.43,0,0,1,2.89,6.54,15.16,15.16,0,0,1,.31,3.2,13,13,0,0,1-.77,4.19,11.47,11.47,0,0,1-2.05,3.65,13.42,13.42,0,0,1-4.87,3.58,1.32,1.32,0,0,1-.39.16c-.91.3-1.82.6-2.74.83-.68.16-1.37.23-2,.38a16,16,0,0,1-2.06.23h-.07c-1.07,0-2.06.15-3,.08-.76-.08-1.6,0-2.36-.15l-1.45-.16-1.52-.22a19.11,19.11,0,0,1-2.06-.39c-1.37-.22-2.74-.6-4.11-.91-1.52-.38-3-.84-4.57-1.29l-5-1.6c-1.29-.38-2.59-.76-3.88-1.07h-.16c-.07-.07-.07-.07-.07-.15h.68a.26.26,0,0,0,.23-.08,11.67,11.67,0,0,0,3.58-.83,8.9,8.9,0,0,0,4-3.13,17.75,17.75,0,0,0,1.75-3.35c.46-1.21.84-2.43,1.3-3.73a13.54,13.54,0,0,1,.91-2.28,1.51,1.51,0,0,1,.3-.46h1.53a3.33,3.33,0,0,1,.83-.07h1.53a9.39,9.39,0,0,0,1.44.07h.46a8,8,0,0,0,1.37.15c.31.08.69.08,1.07.16a14.73,14.73,0,0,1,1.82.38,17.14,17.14,0,0,1,2.67.68l2.05.69c.69.23,1.53.68,2.29,1,.46.23.84.45,1.22.68a6.42,6.42,0,0,1,1.52.92,22,22,0,0,1,4,3.12c.08.07.15.15.23.15a.22.22,0,0,0,.3,0,.14.14,0,0,0,0-.23l-.23-.23c-.38-.38-.83-.76-1.21-1.14-.54-.46-1.07-.84-1.6-1.22a20.31,20.31,0,0,0-3.89-2.28c-.38-.15-.76-.38-1.06-.53-.61-.23-1.14-.46-1.75-.69-.84-.3-1.68-.61-2.52-.84s-1.67-.38-2.43-.61a12,12,0,0,0-2.21-.3c-.31,0-.61-.08-1-.08a6.24,6.24,0,0,0-1.14-.07h-.46a.92.92,0,0,0-.46-.08h-3A5.42,5.42,0,0,1,112.54,103.48Z"/><path class="cls-5" d="M38.22,102.41a12.36,12.36,0,0,1,.15-1.6,7.79,7.79,0,0,1,.23-1.9c.16-.76.16-1.6.38-2.36.08-.31.08-.61.16-1a.31.31,0,0,0,.07-.23A12.56,12.56,0,0,1,39.67,93a35.84,35.84,0,0,1,1.45-4.87,12.76,12.76,0,0,1,.76-1.9l.91-1.83a6.63,6.63,0,0,1,.61-1,19.85,19.85,0,0,1,2.13-2.82,15.37,15.37,0,0,1,1.68-1.44,14.09,14.09,0,0,1,5.4-2.52,8.46,8.46,0,0,1,2-.22,1.61,1.61,0,0,0,.61-.08,3.86,3.86,0,0,0,1,.08h1.37v.15a10.51,10.51,0,0,0,3.28,6,7.09,7.09,0,0,0,4.41,2.13,3.69,3.69,0,0,0,1.3-.07,1.82,1.82,0,0,0,1.29-.92,3.52,3.52,0,0,0,.38-1,4.13,4.13,0,0,0,.15-1.67,10.55,10.55,0,0,0-.22-2.21l-.23-1.37a2.93,2.93,0,0,1,.83.08c1.53.23,3,.45,4.5.76l4.72.91,1.29.31c.23.07.23.07.23.3v1.75a8.82,8.82,0,0,1-.08,1.45c-.07.46-.07,1-.15,1.45a2.74,2.74,0,0,0-1.14,0,6.36,6.36,0,0,0-1.22.15,11.75,11.75,0,0,0-2.28.53c-.08,0-.15.08-.23.15h-.61l-1.07-.22A10.71,10.71,0,0,0,71.12,85a7.1,7.1,0,0,0-1.3.08l-1.67.23a17.2,17.2,0,0,0-4.34,1.52A18.73,18.73,0,0,0,61.6,88a6.59,6.59,0,0,0-1.22.84l-.08-.08-3-4.42a.25.25,0,0,1-.07-.15.18.18,0,0,1,.07-.3l.16-.16v-.07a.08.08,0,0,0-.08-.08h0l-.15.08a3.68,3.68,0,0,0-.92.61c-.76.61-1.52,1.29-2.28,2-1.22,1.14-2.36,2.36-3.5,3.65a19.63,19.63,0,0,0-1.83,2.59,6.28,6.28,0,0,0-.91,2.36,2.59,2.59,0,0,0,.07,1.07.83.83,0,0,0,.84.61h.46l.68-.23c.23-.08.46-.23.76-.31s.31-.07.38.08a4.74,4.74,0,0,0,.61.68.29.29,0,0,1-.07.16,3.34,3.34,0,0,0-.54.53c-.45.53-.91,1.07-1.29,1.6s-.76.84-1.07,1.29c-.45.61-.91,1.22-1.44,1.91-1.07,1.37-2.06,2.74-3,4.18-1.07,1.53-2.06,3.2-3.05,4.8a15,15,0,0,0-1.29,2.44,10.93,10.93,0,0,0-.84,3.12,2,2,0,0,1-.15.61v-.31a13.45,13.45,0,0,0-.15-1.67v-.23a7.88,7.88,0,0,0-.08-1.37v-1.22a2.46,2.46,0,0,0-.08-.76v-6.47c.08-.91.08-1.83.08-2.74C38.3,102.71,38.22,102.56,38.22,102.41Z"/><path class="cls-4" d="M41,88.17A35.8,35.8,0,0,0,39.52,93c-.23.77-.31,1.53-.46,2.29,0,.07-.08.15-.08.23a2.7,2.7,0,0,0-.53-.23,26.72,26.72,0,0,0-3.27-1.6c-1.07-.46-2.14-.84-3.2-1.22a26.32,26.32,0,0,0-3.28-.84,8.64,8.64,0,0,1-1.37-.3,2.66,2.66,0,0,0-.83-.08,7.26,7.26,0,0,0-1.22-.15.94.94,0,0,1-.46-.08l-1.67-.91c-1.68-.91-3.35-1.9-4.95-3a22.37,22.37,0,0,1-4.42-3.58,7.17,7.17,0,0,1-1.45-2.13,3.92,3.92,0,0,1,.39-4,6.39,6.39,0,0,1,2-1.83,5.33,5.33,0,0,1,2.13-.61,1.63,1.63,0,0,0,.61-.07,2.28,2.28,0,0,1,.68.07A7.65,7.65,0,0,1,20,75.3a19.68,19.68,0,0,1,3,.92,42.26,42.26,0,0,1,5.86,3l.15.08,1.68,1.06c1.06.69,2.13,1.45,3.12,2.21.84.61,1.68,1.22,2.44,1.83.61.46,1.21.91,1.82,1.45a4.72,4.72,0,0,1,.69.61,11.77,11.77,0,0,1,1.52,1.29A1.06,1.06,0,0,0,41,88.17Z"/><path class="cls-3" d="M41,88.17a.78.78,0,0,1-.53-.3c-.46-.46-1-.84-1.52-1.3a4.72,4.72,0,0,1-.69-.61c-.61-.45-1.22-.91-1.82-1.44-.84-.61-1.6-1.22-2.44-1.83-1-.76-2.06-1.52-3.12-2.21l-1.68-1.07c.08,0,.08-.07.08-.15h0l-.38-.91a6.89,6.89,0,0,1-.46-1.68,3.81,3.81,0,0,1,1-3.35,5.69,5.69,0,0,1,2.82-1.52A5.08,5.08,0,0,1,34,71.72a10.09,10.09,0,0,1,3,1,13.83,13.83,0,0,1,2.21,1.53,15.37,15.37,0,0,1,1.68,1.44c.23.23.45.38.68.61.61.69,1.22,1.3,1.83,2s1.07,1.22,1.6,1.91c.08.15.23.22.38.38a24.72,24.72,0,0,0-2.13,2.81c-.23.31-.38.69-.61,1l-.91,1.83C41.42,86.88,41.19,87.56,41,88.17Z"/><path class="cls-3" d="M132.64,94.87a2.61,2.61,0,0,1-.84-.3,22.55,22.55,0,0,0-5.48-1.6c-.31-.08-.69-.08-1-.15a7.88,7.88,0,0,1-1.37-.16h-.23a7.61,7.61,0,0,1-1.3-.07h-1.29c0-.16-.08-.38-.08-.61a10.42,10.42,0,0,0-1.67-5.26l-.08-.15h.23a31.67,31.67,0,0,1,3.81-1.14c.68-.15,1.37-.3,2-.38a14,14,0,0,1,2.51-.15,9.25,9.25,0,0,1,3.5.76,7.19,7.19,0,0,1,2.21,1.83,8.73,8.73,0,0,1,.76,1.06,4.57,4.57,0,0,1,.08,4.42,11.28,11.28,0,0,1-1.37,1.9Z"/><path class="cls-6" d="M60.07,88.93a14.07,14.07,0,0,1,1.22-.84,22.29,22.29,0,0,1,2.21-1.21,18.41,18.41,0,0,1,4.34-1.53,11.88,11.88,0,0,1,1.68-.22,7.37,7.37,0,0,1,1.29-.08,12.36,12.36,0,0,1,1.6.15c.38.08.76.15,1.07.23a.24.24,0,0,0,.22.23,19.44,19.44,0,0,1,3.35,1.75,14.49,14.49,0,0,1,1.76,1.22c.45.38.91.76,1.29,1.14s.84.84,1.22,1.22.61.68.91,1.06a2,2,0,0,1,.31.46c.07.15.22.31.22.46s.23.23.31.38a.76.76,0,0,1,.15.38l.23.46a6.13,6.13,0,0,1,.46.68c.15.46.38.91.53,1.3,0,.07,0,.07.08.15a.25.25,0,0,0,.15.07c.07,0,.07,0,.07-.07h0a.3.3,0,0,0-.07-.23c-.08-.15-.15-.38-.23-.53s-.15-.23,0-.38V95a.78.78,0,0,1-.3-.61c0-.07-.08-.07-.16-.15-.23-.15-.3-.23-.15-.53,0-.08,0-.15-.08-.15a.52.52,0,0,1-.45-.31c-.08-.07-.08-.15-.15-.23a1.12,1.12,0,0,1-.31-.83v-.08c0-.08-.08-.08-.15,0s-.23.08-.23-.08a.84.84,0,0,0-.46-.53c-.07,0-.07-.08-.15-.15l-.23-.23a1.4,1.4,0,0,1-.3-.46c-.08-.15-.15-.3-.31-.3s-.22-.08-.15-.23,0-.15-.07-.15-.16-.08-.23-.08a2.54,2.54,0,0,0-.54-.38,5.31,5.31,0,0,1-1-.84c-.07-.07-.22-.15-.15-.3s-.07-.08-.15-.08h-.15a.29.29,0,0,0-.23-.15c-.08,0-.15,0-.15-.08h0L78,87.87a5.07,5.07,0,0,1-.61-.38c-.08-.08-.08-.16,0-.31a.37.37,0,0,1,.3-.15.08.08,0,0,0,.08-.08h0c0-.07,0-.07-.08-.15a.1.1,0,0,0-.15,0,1.8,1.8,0,0,0-.38.23c-.08.07-.15.07-.3,0a4.08,4.08,0,0,0-1-.53c-.16-.08-.31-.16-.31-.31s-.07-.07-.15-.07h-.15a4.53,4.53,0,0,1-.92-.39c-.07,0-.07-.15-.07-.15s.15-.07.23-.15a11.75,11.75,0,0,1,2.28-.53A6.38,6.38,0,0,1,78,84.74a3.12,3.12,0,0,1,1.14,0,9,9,0,0,1,2.89.39,13,13,0,0,1,5.26,3,27.87,27.87,0,0,1,3.58,4.26,12.52,12.52,0,0,1,.76,1.3c.07.15.15.3.38.3-.08.08-.15.16-.08.23l.08.15a54.33,54.33,0,0,1,3.58,8,87.23,87.23,0,0,1,3,10.74c.31,1.44.61,3,.92,4.41a.51.51,0,0,0,.07.31v.07c0,.08,0,.15.08.15a7.87,7.87,0,0,0,.15,1.37.26.26,0,0,1-.08.23,2.35,2.35,0,0,0-.38.23,1,1,0,0,0-.3.23.66.66,0,0,0-.38.08,13.82,13.82,0,0,1-2.9,1.06,13.33,13.33,0,0,1-1.75.38c-.15,0-.38-.07-.38-.3l-.07-.31a.28.28,0,0,1,.07-.22.14.14,0,0,0,0-.23c-.23-.16-.23-.23-.07-.54.07-.07.07-.22-.08-.22s-.23-.08-.23-.16h0a1.24,1.24,0,0,0-.23-.76c-.07-.07,0-.23.16-.3s.15,0,.22-.08v-.08a.07.07,0,0,0-.07-.07h-.08c-.3,0-.3,0-.45-.23-.08-.08-.08-.15-.16-.23-.23-.91-.53-1.83-.76-2.74s-.61-2-.91-3c-.38-1.29-.76-2.59-1.14-4a.9.9,0,0,1-.08-.45h.08c.07,0,.07-.08.07-.16a.07.07,0,0,0-.07-.07.24.24,0,0,0-.08.15h0c0-.08-.08-.08-.08-.15-.07-.23-.15-.54-.22-.76s0-.23.07-.31,0-.08-.07-.15-.16-.08-.08-.15,0-.23-.08-.31-.07-.15-.15-.23c-.08-.3-.15-.61-.23-.83s-.15-.38.08-.54c.07-.07,0-.15-.08-.15-.23-.08-.38,0-.38.31v.22c.31,1.15.69,2.36,1.07,3.51a17.44,17.44,0,0,0,.61,1.9c.22.91.53,1.9.83,2.82a19.93,19.93,0,0,0,.61,1.9c.31.91.54,1.9.84,2.89l.61,2c.15.54.3,1,.46,1.53,0,.15.07.22.23.3a2.14,2.14,0,0,0,.15.69.28.28,0,0,1-.15.38,9.84,9.84,0,0,1-1,.61,1.19,1.19,0,0,0-.54.3c-.45.15-.91.38-1.37.53a21.17,21.17,0,0,1-5.78,1.07c-.61,0-1.3.08-2,.08l-1.76-.08a.43.43,0,0,1-.38-.23l-.38-.84c-.45-1-.91-1.9-1.37-2.89-.76-1.68-1.52-3.27-2.36-4.87a4.64,4.64,0,0,0-.53-1.07.44.44,0,0,1-.08-.3,1,1,0,0,0-.23-.61c-.22-.46-.53-.84-.76-1.3a28.06,28.06,0,0,1-1.67-3.5c-.46-1-.92-2-1.3-3a2,2,0,0,1-.22-.91c1.21-.15,2.43-.23,3.57-.38l3.43-.46c1-.07,1.9-.3,2.89-.38a4.06,4.06,0,0,0,1.37-.23,12,12,0,0,0,1.6-.53c.69-.23,1.3-.46,2-.68a5.09,5.09,0,0,1,2.13-.31,2.87,2.87,0,0,0,.77-.07c.07,0,.22-.08.3-.08a.63.63,0,0,0,.38-.76h0c0-.08-.08-.15-.08-.23.16-.08.23-.15.39-.23a.51.51,0,0,0,.15-.53c-.08-.23-.15-.38-.31-.46a1.9,1.9,0,0,1-.45-.38,1.14,1.14,0,0,1,.38-.3.6.6,0,0,0,.15-.77h0c-.08-.07-.08-.15-.15-.15a2.24,2.24,0,0,0-.76-.3,8.09,8.09,0,0,0-1.37-.15l-1.91-.08c-.07,0-.23.08-.3-.08h.15a6.24,6.24,0,0,1,1.14-.07,2.35,2.35,0,0,0,1-.23c.15-.08.31-.08.38-.23a.4.4,0,0,0,.08-.61h0c-.08-.08-.15-.15-.23-.15a1,1,0,0,0-.53-.15A6.38,6.38,0,0,0,87,96.39a14.19,14.19,0,0,0-2.44,0c-.68.08-1.44.23-2.13.38a23.75,23.75,0,0,1-3.27.61,19.43,19.43,0,0,1-3,.08c-1,0-2-.08-3-.15a24.5,24.5,0,0,1-3.27-.46c0-.46-.16-.91-.16-1.45v-.07c0-.08-.07-.08-.15-.08s-.15,0-.15.08h0v.46a4.06,4.06,0,0,1,.08,1,20.28,20.28,0,0,1-2.9-.68,1.84,1.84,0,0,1-.91-.53,6.69,6.69,0,0,1-1-1.07A40.42,40.42,0,0,1,62,90.91,6,6,0,0,1,60.07,88.93Zm30.54,18.89v-.08a.24.24,0,0,0-.08-.15h-.08l-.22.07v.08a.42.42,0,0,1,.3.15c0,.08.08,0,.08,0v-.07Z"/><path class="cls-7" d="M38.45,117.56a1.37,1.37,0,0,0,.15-.61,11.36,11.36,0,0,1,.84-3.12,14.66,14.66,0,0,1,1.3-2.44c1-1.6,2-3.19,3-4.79,1-1.45,1.9-2.82,3-4.19.46-.61.91-1.22,1.45-1.9a15.13,15.13,0,0,0,1.06-1.3c.31-.46.84-1.06,1.3-1.6a3.31,3.31,0,0,1,.53-.53c.08-.08.08-.08.08-.15.15.15.3.23.45.38.92.91,1.83,1.83,2.74,2.74,1.15,1.14,2.36,2.28,3.58,3.35a15.29,15.29,0,0,0,2.21,1.6,6.43,6.43,0,0,0,2.13.76,13.43,13.43,0,0,0,2.44.23,39.06,39.06,0,0,0,4.19-.08l1.9-.07h.76c.08.07.15.15.15.22.16.31.23.69.39,1a1.24,1.24,0,0,1,.15.46,1.06,1.06,0,0,1,.07.46c0,.15.23.23.31.45v.23c0,.08,0,.16.07.16h0c.23.07.23.3.31.45a.94.94,0,0,0,.3.61c.08,0,.08.08.08.15s0,.23.15.31a2.91,2.91,0,0,1,.38.68c-.07.16-.15.16-.23.16s-.22.07-.15.22.15,0,.31,0,.22-.07.3.08.08.08.08.15a23.52,23.52,0,0,0,1.52,2.82,1,1,0,0,1,.15.46c0,.07-.07.15-.15.22-.61.77-1.22,1.45-1.83,2.21s-1.06,1.22-1.6,1.83-1.14,1.14-1.67,1.83c-.69.76-1.52,1.52-2.29,2.21a31.27,31.27,0,0,1-2.43,2,10.59,10.59,0,0,1-2.44,1.29,12.82,12.82,0,0,1-1.6.38,6.36,6.36,0,0,1-1.22.15,12.84,12.84,0,0,0-1.44.15H56.8a2.22,2.22,0,0,1-.68-.07,2.46,2.46,0,0,0-1.3.07,3,3,0,0,1-.84.16c-.61.07-1.14.15-1.75.23-.45,0-.91.07-1.44.07a7.1,7.1,0,0,1-1.3.08c-.68,0-1.37-.08-2.13-.15s-1.22-.16-1.9-.31a9.61,9.61,0,0,1-4.19-2,7.68,7.68,0,0,1-2.74-4.57,9.58,9.58,0,0,1-.23-2.13,2.46,2.46,0,0,0-.08-.76C38.37,117.71,38.45,117.64,38.45,117.56Z"/><path class="cls-8" d="M83,125.4c.69,0,1.3-.07,2-.07a21.67,21.67,0,0,0,5.79-1.07,9.65,9.65,0,0,0,1.37-.53,4,4,0,0,1,.3.91,1.11,1.11,0,0,0,.23.38,1.23,1.23,0,0,0-.53.08,4.9,4.9,0,0,0-3.35,2.74.24.24,0,0,1-.08.15c0,.08,0,.08.08.08h.15a.56.56,0,0,0,.15-.31,3.7,3.7,0,0,1,.92-1.21,3.9,3.9,0,0,1,2.36-1.22c.15,0,.3-.08.3-.15a9.47,9.47,0,0,1,2.06.07,8,8,0,0,1,3.2,1.14c.07,0,.15.08.3.08,0,.15.15.15.31.15a1.18,1.18,0,0,0,.22.31,5.45,5.45,0,0,1,1.22,1.14,5.89,5.89,0,0,1,.84,1.37,6.44,6.44,0,0,1,.61,2.36h-5.1c-.15,0-.31-.08-.46.08H85c-.23,0-.3,0-.3-.23-.23-.69-.38-1.37-.61-2.06-.31-1.22-.61-2.36-1-3.58C83.07,125.71,83,125.56,83,125.4Z"/><path class="cls-2" d="M101.42,131.65a5.18,5.18,0,0,0-.61-2.36,11.73,11.73,0,0,0-.84-1.37,5.74,5.74,0,0,0-1.22-1.15c-.07-.07-.22-.15-.22-.3a3.79,3.79,0,0,1,2-1.22,2.76,2.76,0,0,0,.76-.23h.38a9.91,9.91,0,0,1,4.65,1.15A7.71,7.71,0,0,1,109,128.3,4.77,4.77,0,0,1,110,131v.46c0,.15,0,.23-.23.23l-1.82-.08Z"/><path class="cls-2" d="M92.59,125a1.31,1.31,0,0,1-.23-.38,4.08,4.08,0,0,0-.31-.91,2.14,2.14,0,0,1,.54-.31,4.32,4.32,0,0,0,1-.61.27.27,0,0,0,.15-.38c-.08-.22-.08-.45-.15-.68a.55.55,0,0,0,.38-.08,6.2,6.2,0,0,0,1.75-.38,16,16,0,0,0,3-1.06.32.32,0,0,1,.38-.08l1.29,3.35c.16.46.38.91.54,1.37.07.15,0,.23-.16.31a3.84,3.84,0,0,0-1.82.76,4.72,4.72,0,0,0-.69.61c-.07,0-.23,0-.3-.08a9.6,9.6,0,0,0-3.2-1.07,6.2,6.2,0,0,0-2.06-.07Z"/><path class="cls-9" d="M75.91,115.05a1,1,0,0,0-.15-.46c-.53-.91-1-1.83-1.52-2.82,0-.07-.08-.07-.08-.15s-.15-.15-.3-.07-.16.22-.31,0,.08-.16.15-.23.16-.08.23-.15a3,3,0,0,0-.38-.69.42.42,0,0,1-.15-.3c0-.08,0-.16-.08-.16s-.23-.38-.3-.61-.08-.38-.31-.45c-.07,0-.07-.08-.07-.15h0v-.23c-.08-.16-.31-.23-.31-.46a1.08,1.08,0,0,0-.07-.46,1,1,0,0,1-.15-.45c-.16-.31-.23-.69-.39-1,0-.08-.07-.23-.15-.23v-.08H72l.23.92c.38,1.06.84,2,1.3,3,.53,1.22,1.14,2.29,1.67,3.5a12.52,12.52,0,0,0,.76,1.3.87.87,0,0,1,.23.61Z"/><path class="cls-10" d="M92,93.81c-.23,0-.31-.16-.38-.31-.23-.46-.54-.84-.76-1.29a19.43,19.43,0,0,0-3.58-4.27,12.69,12.69,0,0,0-5.26-3,9,9,0,0,0-2.89-.38,10.19,10.19,0,0,1,.15-1.45,8.82,8.82,0,0,0,.08-1.45V80l1.83.53c.07,0,.15.08.22.15a.58.58,0,0,1,.16.31c.61,1.14,1.29,2.28,2,3.42.07.16.22.31.3.46s.15.08.15,0,.08-.08.08-.15h0a.24.24,0,0,0-.08-.15c-.61-.92-1.06-1.83-1.6-2.74-.38-.77-.83-1.53-1.21-2.29a.24.24,0,0,0-.08-.15c.15-.08.23-.23.38-.23s.15-.08.23-.15-.08-.15-.23-.23a.28.28,0,0,0-.38.15c0,.08-.08.08-.15.15a1.6,1.6,0,0,1-.31-.61l.16-.15a.19.19,0,0,0-.08-.3H80.4c-.15-.31-.38-.69-.53-1a18.37,18.37,0,0,1-1.06-2.13,2.33,2.33,0,0,1-.39-.77c.08-.15.23-.15.39-.07h0a.07.07,0,0,1,.07.07c.08.08.15,0,.23-.07s-.08-.38-.23-.31a1.73,1.73,0,0,0-.61.16c-.3-.61-.61-1.15-.91-1.75,0-.16.07-.23.23-.16a.43.43,0,0,0,.3.08.16.16,0,0,0,.15-.15c0-.08,0-.08-.07-.08h0a.44.44,0,0,1-.31-.15c-.07-.08-.15,0-.23.07h0l-.07.08-.53-1c-.08-.23-.23-.38-.31-.61l.15-.15c.08-.08.08-.15,0-.15s-.07-.16-.15-.08l-.15.08c-.46-.76-.76-1.53-1.14-2.29v-.07c0-.08.15-.08.23-.08l.22-.08a.16.16,0,0,0,.16-.15.17.17,0,0,0-.16-.15h-.22a2,2,0,0,1-1.6-.61,3.76,3.76,0,0,1-1.15-3V63.2a.24.24,0,0,0-.22-.23h-.08c-.15.07-.38.15-.53.23a3.51,3.51,0,0,1-1.22.23c-.61,0-.84-.31-.61-.92a1.68,1.68,0,0,1,.68-.76,4.59,4.59,0,0,1,1.45-.53,6.67,6.67,0,0,1,1.3-.08h.3a.16.16,0,0,0,.15-.15h0v-.08a.16.16,0,0,0-.15-.15h-.3a7.07,7.07,0,0,0-2.75.53h-.07c-.08,0-.15,0-.15-.07a1.45,1.45,0,0,1,1.06-1.6,3.68,3.68,0,0,1,.92-.15,7.77,7.77,0,0,1,2.28.3.92.92,0,0,0,.46.08.17.17,0,0,0,.15-.16c0-.07,0-.15-.08-.15a.29.29,0,0,0-.23-.07,7.77,7.77,0,0,0-3-.38,4.84,4.84,0,0,0-1.15.3c-.07-.08,0-.15,0-.23a3.12,3.12,0,0,1,1-1A4,4,0,0,1,75.53,58,5.81,5.81,0,0,1,78,60.08a9.21,9.21,0,0,1,1.29,2.81A19,19,0,0,1,79.72,65a.28.28,0,0,0,.08.23c0,.07.07.22.15.22s.23.16.38.23a95.66,95.66,0,0,1,10,12,39.88,39.88,0,0,1,3.27,5.56A16.94,16.94,0,0,1,95,87.1a7,7,0,0,1,.16,2.82,5.11,5.11,0,0,1-3,4.11Zm-8.61-11.2v-.23c0-.07-.07-.07-.15-.07h0l-.07.07c0,.08,0,.08.07.16s.08.07.15.07a.42.42,0,0,0,.23.31.27.27,0,0,0,.23-.08c0-.08,0-.15-.08-.15h0a.78.78,0,0,0-.38-.08ZM80.94,73.4v.15a.15.15,0,0,0,.15.15h.08c.07,0,.07-.07.15-.15s-.08-.15-.23-.15h-.15v-.15c0-.08-.08-.15-.23-.15h-.08c-.07,0-.07.07-.07.15l.07.07a.45.45,0,0,0,.31.08Zm-2.21-1.68a.45.45,0,0,0-.31.08.15.15,0,0,0,0,.23h0a.14.14,0,0,0,.23,0h0a.45.45,0,0,0,.08-.31c.08,0,.15-.07.23-.15a.15.15,0,0,0,0-.23h0a.15.15,0,0,0-.23,0c-.15.16,0,.31,0,.38Zm1.83,3.35c-.08,0-.16.16-.16.16a1.07,1.07,0,0,1,.31.68c0,.08.08.08.08.15a.22.22,0,0,0,.3,0,.13.13,0,0,0,0-.22c-.08-.08-.15-.08-.15-.16.07-.3-.31-.3-.31-.53Zm-.76-.53c-.08,0-.08,0-.16.08s-.07.38.08.53l.23.23c.07.08.15,0,.23-.08h0c0-.07.07-.15,0-.15a.53.53,0,0,1-.23-.46v-.07Zm.38,1.75-.08.08c-.08.08-.08.15,0,.15h0a2.36,2.36,0,0,0,.76.38c.08,0,.08,0,.15-.07s.08-.08,0-.16h0l-.61-.38ZM79.41,73v-.15c-.22-.16-.38-.31-.6-.46-.08,0-.16,0-.16.08v.15c.16.07.23.23.38.38a.56.56,0,0,0,.31.15c0-.07,0-.07.07-.15Zm.54-.61H79.8c-.08,0-.08.08-.08.15h0c.08.15.3.23.38.15a1.82,1.82,0,0,1,.38-.22c.08,0,.08-.08.08-.16s-.08-.07-.08-.07-.15-.08-.15,0h0c-.15.15-.23.3-.38.15Zm2.21,4.42c0-.08,0-.16-.16-.23a.45.45,0,0,0-.45,0,.14.14,0,0,0,0,.23h0c.07.07.22.07.38.15s.23.07.23-.15Zm2.36,4.87a.17.17,0,0,0-.16.15l.23.46c.08.07.15.07.15,0s.16-.08.08-.15l-.23-.46Zm-2-2.29c.15-.07.3-.07.45-.15s.08-.07.08-.15h0a.16.16,0,0,0-.15-.15h0a1.24,1.24,0,0,1-.46.15.28.28,0,0,0-.08.15c.08.15.08.23.16.15ZM81.77,78h.31c.08,0,.08-.08.08-.15h0a.08.08,0,0,0-.08-.08.47.47,0,0,0-.46,0c-.07,0-.07.08-.07.23a.16.16,0,0,0,.15.15h.07ZM77.51,71a1.18,1.18,0,0,0-.15-.46.29.29,0,0,0-.15-.07.16.16,0,0,0-.16.15,1.1,1.1,0,0,0,.16.46.25.25,0,0,0,.15.07c.07,0,.07-.07.15-.15Zm7,10.13-.23-.46h-.15a.28.28,0,0,0-.08.15,1,1,0,0,1,.15.46c0,.07.08.07.15.07s.08-.15.16-.22Zm-3.2-5.94c.15,0,.38-.08.38-.31,0-.07,0-.07-.08-.15s-.07-.08-.15-.08l-.3.23c.07.15.07.23.15.31Zm-.46,2h-.15a.14.14,0,0,0,0,.23,1.82,1.82,0,0,0,.38.22c.08,0,.15,0,.15-.07h0v-.15c-.15.07-.23-.08-.38-.23h0Zm2.74,4.11h0a1.13,1.13,0,0,0-.23-.46h-.15c-.07,0-.07.08-.07.08a.64.64,0,0,0,.22.45c.08,0,.23,0,.23-.07Zm1.53-1.07A.17.17,0,0,0,85,80.1h-.15a.57.57,0,0,0-.15.3c0,.08,0,.16.07.16h.16a1.46,1.46,0,0,0,.23-.31Zm-3-5.78h0a.5.5,0,0,0-.46-.39.17.17,0,0,0-.15.16.52.52,0,0,0,.46.3Zm-1.52,0h0c0,.15,0,.22.15.22s.15,0,.15-.07h0c0-.08.08-.15.08-.23a.16.16,0,0,0-.15-.15c-.16-.08-.23,0-.23.23Zm4.57,8.45-.08-.08a.27.27,0,0,0-.38.15h0a.16.16,0,0,0,.15.16c.15,0,.23-.08.31-.23Zm-2.59-2.13h-.08a.15.15,0,0,0-.15.15h0a.16.16,0,0,0,.15.15.27.27,0,0,0,.23-.08v-.15c0-.07,0-.07-.15-.07ZM82.23,80c.15,0,.23-.07.23-.22h0a.17.17,0,0,0-.15-.16c-.15,0-.23.08-.23.16h0c.08.07.15.15.15.22ZM83.83,79h0c.15,0,.23-.08.23-.15s-.08-.16-.23-.16-.15,0-.15.08v.15s0,.08.07.08Zm-4.26-4.49c.07,0,.15-.08.23-.16h0a.17.17,0,0,0-.16-.15h0c-.07,0-.15.08-.23.15h0c0,.08.08.08.16.16Zm6.62,7.61a.16.16,0,0,0,.15-.15.15.15,0,1,0-.3,0c.07.07.07.15.15.15Zm-7-11.8a.16.16,0,0,0-.16-.15.16.16,0,0,0-.15.15h0a.17.17,0,0,0,.15.15h0c.08.08.16-.08.16-.15Zm5.55,9a.15.15,0,1,0,0-.3.16.16,0,0,0-.15.15h0a.16.16,0,0,0,.15.15Zm-4.64-11c0-.08-.08-.15-.23-.15a.16.16,0,0,0-.15.15.21.21,0,0,0,.23.23h0c.07,0,.15-.16.15-.23Zm-1.68.23a.16.16,0,0,0-.15-.16h0c-.07,0-.15.08-.23.16a.17.17,0,0,0,.16.15c.15,0,.22-.08.22-.15Zm-2.28.23A.17.17,0,0,0,76,68.6a.16.16,0,0,0-.15.16.16.16,0,0,0,.15.15h0a.17.17,0,0,0,.15-.15Zm.61-.08a.16.16,0,0,0-.15.15.15.15,0,0,0,.3,0h0c.08-.07,0-.15-.15-.15Zm3.58,3c0-.08-.08-.15-.15-.23a.17.17,0,0,0-.16.15.16.16,0,0,0,.16.15h0c0,.08.07,0,.15-.07ZM83.22,80a.16.16,0,0,0-.15-.15c-.08,0-.15,0-.15.15s.07.16.15.16a.16.16,0,0,0,.15-.16h0c.08,0,.08-.07,0,0Zm2.59.54a.15.15,0,0,0-.15.15h0a.15.15,0,0,0,.3,0h0c0-.08,0-.15-.15-.15ZM77.28,67.69a.16.16,0,0,0,.15.15.16.16,0,0,0,.16-.15h0a.16.16,0,0,0-.16-.15s-.07,0-.15.15Zm9.14,15.23c.08,0,.15-.16.08-.23a.16.16,0,0,0-.16-.15.16.16,0,0,0-.15.15h0c0,.07.15.07.15.07v.16Zm-2,.76a.16.16,0,0,0-.15-.15c-.08,0-.15.07-.23.15s.08.15.23.15.07-.08.15-.15Zm-5-12.56a.17.17,0,0,0-.15-.16.16.16,0,0,0-.15.16.16.16,0,0,0,.15.15h0a.17.17,0,0,0,.15-.15Zm.23.91a.16.16,0,0,0-.15-.15.16.16,0,0,0-.16.15h0a.16.16,0,0,0,.16.15h0c.07-.07.15-.07.15-.15Zm1.45.38a.16.16,0,0,0-.16-.15c-.07,0-.15.07-.22.15a.15.15,0,0,0,.15.15c.07,0,.23-.07.23-.15Zm2.2,2.82c0-.08-.15-.16-.22-.16h0a.17.17,0,0,0-.16.16c0,.07.08.15.23.15h0A.16.16,0,0,0,83.37,75.23Zm-.76-.54c0-.07-.07-.15-.23-.15h0c-.07,0-.07.08-.15.15a.17.17,0,0,0,.15.16h0c.16,0,.16-.08.23-.16Zm-4.57-2c.08,0,.23-.15.16-.15s-.08-.07-.16-.07-.15,0-.15.15a.29.29,0,0,0,.15.07Zm.38.31c-.07,0-.15.08-.22.15s.07.08.15.08.15,0,.15-.08h0V73.1a.08.08,0,0,0-.08-.08Zm4.27-.08a.17.17,0,0,0-.15-.15c-.08,0-.23.08-.23.15a.16.16,0,0,0,.15.16c.15,0,.23-.08.23-.16Zm2.44,11.27a.15.15,0,0,0,0-.3.16.16,0,0,0-.16.15c0,.08,0,.15.16.15ZM80.86,71.27a.15.15,0,0,0-.15-.15c-.08,0-.23.07-.23.15s0,.15.08.15h0c.23,0,.3-.08.3-.15Zm4,6.77a.17.17,0,0,0-.15-.15h0a.16.16,0,0,0-.15.15.16.16,0,0,0,.15.16.17.17,0,0,0,.15-.16Zm-1.07,2.14c-.07,0-.15,0-.15.07a.16.16,0,0,0,.15.15h0a.29.29,0,0,0,.16-.07h0c0-.15-.08-.15-.16-.15ZM78.42,69.52c.08,0,.16,0,.16-.16s0-.15-.16-.15h0a.17.17,0,0,0-.15.15h0c.08.08.15.08.15.16Zm6.1,10c-.08,0-.16,0-.16.08a.17.17,0,0,0,.16.15h0a.17.17,0,0,0,.15-.15h0c0-.08,0-.08-.15-.08ZM77.13,69.9c0-.08-.08-.16-.23-.08s-.15.08-.07.15.15.16.22.16h0c.08,0,.16,0,.16-.08s0-.15-.08-.15Zm5,8.83c-.16,0-.23.08-.16.15l.16.15c.07,0,.15-.07.22-.15h0c0-.15-.07-.15-.22-.15Zm-.69-2.59c.15,0,.15-.08.15-.15a.15.15,0,0,0-.15-.15h0a.15.15,0,0,0-.15.15l.15.15Zm3.43,5a.16.16,0,0,0-.16-.15h0a.16.16,0,0,0-.15.15h0c0,.08.15.15.23.15h0s.08,0,.08-.07.07-.08,0-.08Zm-.31,4a.16.16,0,0,0,.15-.16h0c0-.07-.07-.07-.15-.07a.16.16,0,0,0-.15.15h0c0,.08.08.08.15.08ZM78.12,70.51a.16.16,0,0,0,.15-.16h0a.16.16,0,0,0-.15-.15c-.08,0-.15,0-.15.08h0c.07.15.07.23.15.23Zm8.15,8.9a.28.28,0,0,0-.08-.15h0a.16.16,0,0,0-.15.15h0a.16.16,0,0,0,.15.16h0c.08-.08.08-.08.08-.16ZM80.1,70.66a.16.16,0,0,0-.15-.15h0a.15.15,0,0,0-.15.15h0a.16.16,0,0,0,.15.15c.07.08.15,0,.23-.08-.08.08-.08.08-.08-.07Zm.08-.84a.16.16,0,0,0-.16-.15c-.07,0-.15,0-.15.07s0,.16.08.16H80c.16.07.16,0,.16-.08Zm3.57,9.9a.17.17,0,0,0-.15.15h0a.16.16,0,0,0,.15.15.16.16,0,0,0,.16-.15h0c0-.15,0-.23-.16-.15Zm-.83-1.52a.16.16,0,0,0-.16.15h0c0,.07.08.07.16.07h0a.16.16,0,0,0,.15-.15h0c0-.07-.08-.15-.15-.07ZM77.51,69a.16.16,0,0,0-.15.16h0a.16.16,0,0,0,.15.15h0c.08,0,.15,0,.15-.08h0c.08-.07,0-.15,0-.23h-.15ZM80,73.55c-.08,0-.15,0-.15.08h0a.29.29,0,0,0,.07.15h0c.08,0,.15,0,.15-.08h0c.08-.07.08-.15-.07-.15Zm-1.6-2.28c.07,0,.15,0,.15-.08h0a.17.17,0,0,0-.15-.15.16.16,0,0,0-.15.15h0c.07,0,.07.08.15.08Zm1.22,4.34c0-.08,0-.15-.08-.15h0a.25.25,0,0,0-.15.07h0c0,.08,0,.15.07.15h0a.28.28,0,0,0,.23.08c0-.08,0-.15-.07-.15ZM83.3,80.4c0-.07-.08-.07-.15-.07h0c-.08,0-.08.07-.08.15s.08.08.15.08h0c.08-.08.08-.08.08-.16Zm-.38-2.81c0-.08,0-.15-.08-.15h0a.15.15,0,0,0-.15.15c0,.07,0,.15.07.15h0l.16-.15ZM78.2,70c0-.07-.08-.07-.16-.07s-.15,0-.15.07,0,.16.08.16H78s.08,0,.16-.16Zm8.3,11a.28.28,0,0,0-.08-.15h0c-.08,0-.15,0-.15.08h0a.29.29,0,0,0,.07.15h0c.08.08.16,0,.16-.08Zm-4-4.64a.17.17,0,0,0-.16.15h0c0,.08.08.15.16.08h0a.17.17,0,0,0,.15-.15h0a.28.28,0,0,0-.15-.08Zm2.89,5c0-.07,0-.15-.08-.15h0a.17.17,0,0,0-.15.15c0,.08,0,.16.08.16h0s.07,0,.15-.16Zm1.22,2.21c0-.07,0-.15-.08-.15h0c-.07,0-.15,0-.15.08h0v.07c0,.08,0,.15.08.15a.16.16,0,0,0,.15-.15Zm-3.89-2.13a.15.15,0,0,0-.15-.15.16.16,0,0,0-.15.15h0c0,.08.08.15.15.08h0c.08,0,.15,0,.15-.08Zm.39-4.42c0-.07-.08-.07-.16-.15a.16.16,0,0,0,0,.31h0c.08,0,.16,0,.16-.16Zm.38,4.88a.24.24,0,0,0-.08-.15h0c-.08,0-.15,0-.15.07h0c0,.08,0,.15.15.15,0,0,.08,0,.08-.07s.07-.08,0,0Zm2.2.38a.15.15,0,0,0-.15-.15h0a.16.16,0,0,0-.15.15h0c0,.07,0,.15.08.15h0c.15,0,.22-.08.22-.15Zm2,.76a.25.25,0,0,0-.07-.15h0c-.08,0-.15,0-.15.07s0,.16.07.16h.08a.07.07,0,0,0,.07-.08Zm-4.18-8.83c.07,0,.15,0,.15-.08h0c0-.08,0-.15-.08-.15h0a.16.16,0,0,0-.15.15h0c-.08.08,0,.08.08.08ZM81.39,72c.08,0,.16,0,.16-.15a.16.16,0,0,0-.16-.15h0a.16.16,0,0,0-.15.15h0a.16.16,0,0,0,.15.15Z"/><path class="cls-10" d="M72,63.43c0,.3.08.68.08,1a3.84,3.84,0,0,0,1.9,2.66c.15.08.23.15.23.3a11.64,11.64,0,0,1,.15,2.82A11.08,11.08,0,0,1,73.7,73a6.71,6.71,0,0,1-1.59,2.51,4.72,4.72,0,0,1-3.81,1.3,7.07,7.07,0,0,1-4-2,11,11,0,0,1-2.82-4.72c0-.08-.07-.16.08-.23s.3-.08.38.07h0a2,2,0,0,0,1.06.84.28.28,0,0,1,.16.08c.07,0,.15,0,.15-.08h0v-.15c-.08-.08-.15-.08-.23-.15a2.5,2.5,0,0,1-.53-.38,1.39,1.39,0,0,1-.38-.54,1,1,0,0,1,.07-.83.77.77,0,0,1,.92-.31,2.75,2.75,0,0,1,.76.46c.07.07.15.15.23.15h.15c.07,0,.07-.08,0-.15s-.08-.08-.08-.15a.12.12,0,0,1,0-.16l.15-.07a19.88,19.88,0,0,0,4.5-3.89c.23-.3.45-.53.68-.83.08-.08.15-.16.23-.08a3.33,3.33,0,0,0,1.75-.23C71.72,63.43,71.88,63.35,72,63.43Zm-1.52,9.13a5.78,5.78,0,0,0-2.28.54c-.08,0-.08.07-.16.07a.29.29,0,0,0-.07.15.16.16,0,0,0,.15.16c.08,0,.15,0,.15-.08.23-.08.53-.23.76-.3a3.37,3.37,0,0,1,2.59.07c.08.08.23.08.23,0s0-.15-.15-.23a2.34,2.34,0,0,0-1.22-.38Zm2.89-3.73a.16.16,0,0,0-.15-.15l-.23.08a2.18,2.18,0,0,1-1.82.15L71,68.83a.17.17,0,0,0-.15.15c0,.08,0,.16.08.16l.53.22a1,1,0,0,1,.61.31.47.47,0,0,0,.61,0c.07,0,.07-.08.07-.15a.83.83,0,0,1,.54-.46c-.08,0,0-.08.07-.23Zm-6.7.38a.29.29,0,0,0-.07.15v.16c.07.07.07.07.15.07a1.33,1.33,0,0,0,.53.15.42.42,0,0,1,.38.23.42.42,0,0,0,.54.16h0c.07,0,.07-.08.15-.16a1.68,1.68,0,0,1,.53-.53c.08,0,.08-.08.15-.15s.08-.15,0-.15-.07-.08-.15-.08l-.15.08a2.26,2.26,0,0,1-2,.15c.08-.08,0-.08-.08-.08Zm1.53-2.28a2.63,2.63,0,0,0-.77.15c-.07,0-.07.15-.07.23s.07.07.15.07h.15a2.8,2.8,0,0,1,1.37.16.29.29,0,0,1,.16.07c.07,0,.15,0,.15-.07s.07-.16,0-.16a1.7,1.7,0,0,0-1.14-.45Zm4.41-.31a1.78,1.78,0,0,0-1.52.76.14.14,0,0,0,0,.23h0a.1.1,0,0,0,.15,0l.08-.07a3,3,0,0,1,1.44-.61h.08c.08,0,.08-.08.08-.15a.08.08,0,0,0-.08-.08Zm-2.74,4.8A1.5,1.5,0,0,0,70.89,71l.07-.07v-.16c0-.07-.07,0-.15,0s-.08.08-.15.08a1.14,1.14,0,0,1-.84.31c-.08,0-.08,0-.15.07a.28.28,0,0,0-.08.15.08.08,0,0,0,.08.08Z"/><path class="cls-11" d="M67.77,77.51,68,78.88a10.37,10.37,0,0,1,.23,2.21,10.8,10.8,0,0,1-.15,1.67,3.85,3.85,0,0,1-.38,1,2,2,0,0,1-1.3.92,3.73,3.73,0,0,1-1.29.07,8,8,0,0,1-4.42-2.13,11,11,0,0,1-3.27-6v-.15a.27.27,0,0,1,.23-.08l2.28.08c.08.15-.07.3-.07.45s0,.23.07.31.23,0,.31-.16c.3-.68.53-1.29.83-2l.77-2c.07-.16.15-.39.22-.54s.16-.15.23,0a13.59,13.59,0,0,0,.84,1.3,8.84,8.84,0,0,0,1.37,1.52l-.08.08c-.07.07-.22.07-.22.22s.15.08.22.08c.23.08.23.08.31-.15l.3.23a7.51,7.51,0,0,0,1.3.76c.3.15.3.15.15.45-.23.54-.38,1-.61,1.53a3.46,3.46,0,0,0-.3.83v.08a.3.3,0,0,0,.07.23.14.14,0,0,0,.23-.08c.08-.07.08-.23.15-.3l.61-1.52c.23-.54.23-.54.76-.46C67.54,77.44,67.69,77.44,67.77,77.51Zm-3-1.29c0-.16,0-.23-.08-.23h-.15l-.23.23c0,.07,0,.15.08.15a.23.23,0,0,0,.38-.15Zm-2.36-1.68h0v.08a1.13,1.13,0,0,0,.46.15.07.07,0,0,0,.07-.08v-.07a1.23,1.23,0,0,0-.53-.08Zm1.14,3.88h0c-.07-.07-.23-.07-.3-.15s-.08,0-.08.08v.07a.58.58,0,0,0,.38.16v-.16Zm-.23-1.75c.08,0,.23,0,.23-.07s-.07-.15-.23-.08-.07,0-.15.08v.07Zm-.07.61h.15c.08,0,.08,0,.08-.07s0-.08-.08-.08H63l-.07.08v.07Zm1.9.38c.08,0,.15,0,.15-.07v-.08H65.1c-.08,0-.15-.07-.23,0s.08.15.15.15Zm-1.29.16c.07,0,.07,0,.07-.08h0a.15.15,0,0,0-.15-.15h0a.07.07,0,0,0-.08.07h0a.17.17,0,0,0,.16.16ZM63,76.14h0c.08-.08.08-.08.08-.15s-.15-.15-.3-.08V76c0,.07.15.07.22.15Zm1.07.61V76.6H64c-.07,0-.07.07-.07.15s0,.15.07.15h.08v-.15Zm1.68.53h0c-.08,0-.16,0-.16.08a.08.08,0,0,0,.08.08h.15c.08,0,.08,0,.08-.08a.08.08,0,0,0-.08-.08Zm.45-.38c0-.07,0-.07-.07-.07A.16.16,0,0,0,66,77c0,.07,0,.07.08.07h0c.08,0,.15,0,.15-.15Zm-.76.08h0c-.08-.08-.08-.08-.15-.08h0s0,.08.07.08Z"/><path class="cls-12" d="M112.54,103.48a4.18,4.18,0,0,0,1-.08h3a.94.94,0,0,1,.46.08h.45a6.29,6.29,0,0,1,1.15.07,3.82,3.82,0,0,0,1,.08c.76.07,1.52.23,2.2.3a16.41,16.41,0,0,1,2.44.61,16.08,16.08,0,0,1,2.51.84c.61.23,1.15.46,1.76.68.38.16.76.38,1.06.54a19.94,19.94,0,0,1,3.88,2.28,19.38,19.38,0,0,1,1.6,1.22c.54.46.84.76,1.22,1.14l.23.23a.14.14,0,0,1,0,.23.24.24,0,0,1-.3,0c-.08-.08-.16-.15-.23-.15a22.91,22.91,0,0,0-4-3.13c-.46-.3-1-.6-1.53-.91s-.83-.46-1.21-.68c-.76-.31-1.53-.69-2.29-1s-1.37-.46-2-.69a15.36,15.36,0,0,0-2.67-.68,14.93,14.93,0,0,1-1.83-.39c-.38-.07-.68-.07-1.06-.15s-.92-.07-1.37-.15h-.46a9.31,9.31,0,0,1-1.45-.08h-1.52a3,3,0,0,0-.84.08h-1.52C112.31,103.7,112.38,103.55,112.54,103.48Z"/><path class="cls-13" d="M80.94,79c.07-.07.15-.07.15-.15a.28.28,0,0,1,.38-.15.25.25,0,0,1,.23.23c0,.07-.08.15-.23.15s-.23.15-.38.23A.56.56,0,0,1,80.94,79Z"/><path class="cls-13" d="M77.05,71.65a.08.08,0,0,0,.08-.08.3.3,0,0,1,.23-.07l.07.07a.58.58,0,0,0,.39.15c.07,0,.07.08.07.08h0a.15.15,0,0,1-.15.15c-.08,0-.15-.07-.31-.07s-.15,0-.22.15h0A1.19,1.19,0,0,0,77.05,71.65Z"/><path class="cls-13" d="M78.2,73.78c.15-.15.38-.08.61-.15s.3.23.22.3-.15.15-.22.08a.35.35,0,0,0-.39,0,.07.07,0,0,0-.07.07A.37.37,0,0,1,78.2,73.78Z"/><path class="cls-13" d="M64.72,75.61c-.15.15-.15.15-.31.15s-.22,0-.22-.08.15-.15.22-.22l.08-.08Z"/><path class="cls-13" d="M80.4,78h.31a.15.15,0,0,1,.15.15h0s0,.08-.07.08-.08.07-.16.15A2.35,2.35,0,0,1,80.4,78Z"/><path class="cls-13" d="M76.06,69.67l.16-.08c.07,0,.15,0,.15.08s.08.15,0,.15l-.15.15Z"/><path class="cls-14" d="M99.67,117.71v-.07h1a.3.3,0,0,1-.23.07Z"/><path class="cls-12" d="M38.22,102.41c0,.15.08.3-.07.38l-1.68-.23-1.14-.15-1.3-.15h-.15a21.84,21.84,0,0,1-2.28-.16c-.76-.07-1.52-.07-2.29-.07a21,21,0,0,0-2.13.07c-.91.08-1.75.16-2.66.31a41.83,41.83,0,0,0-4.19.91,28.45,28.45,0,0,0-3.58,1.22c-1.07.46-2.05.91-3,1.45a26.06,26.06,0,0,0-5,3.58c-.3.3-.61.53-.91.83l-.69.77c-.08.07-.08.15-.15.15a.26.26,0,0,1-.31,0,.15.15,0,0,1,0-.23,4.65,4.65,0,0,1,.54-.69A28.33,28.33,0,0,1,12.72,106a27.35,27.35,0,0,1,4.79-2.29,34.9,34.9,0,0,1,4-1.21,11.21,11.21,0,0,1,2.36-.46l1.68-.23a4.44,4.44,0,0,1,1-.08,12.16,12.16,0,0,1,1.6-.07h3c.76,0,1.52.07,2.28.07s1.75.16,2.66.31A20.74,20.74,0,0,0,38.22,102.41Z"/><path class="cls-15" d="M72,105.76h-.38a1.25,1.25,0,0,0-.76.08l-2,.07a39.06,39.06,0,0,1-4.19.08,13.33,13.33,0,0,1-2.43-.23,7.2,7.2,0,0,1-2.14-.76,14.68,14.68,0,0,1-2.2-1.6c-1.3-1.07-2.44-2.21-3.58-3.35l-2.74-2.74a2.14,2.14,0,0,0-.46-.38,7.05,7.05,0,0,1-.61-.69c-.07-.15-.23-.15-.38-.07s-.46.22-.76.3l-.69.23H48.2a.83.83,0,0,1-.84-.61A2.49,2.49,0,0,1,47.28,95a6.54,6.54,0,0,1,.92-2.36A20.52,20.52,0,0,1,50,90.07a40.34,40.34,0,0,1,3.51-3.65c.76-.69,1.52-1.37,2.28-2a6.57,6.57,0,0,1,.91-.61l.16-.08c.07,0,.07,0,.15.08h0v.08l-.15.15c-.16.15-.16.15-.08.3l.08.16,3,4.41.07.08a27.07,27.07,0,0,0,1.68,2.36c.91,1.22,1.75,2.44,2.74,3.58a11.33,11.33,0,0,0,1,1.06,2.3,2.3,0,0,0,.91.54c.92.22,1.91.53,2.9.68l.3.08a21.64,21.64,0,0,0,3.27.45c1,.08,2,.16,3,.16s2.06-.08,3-.08A23.21,23.21,0,0,0,82,97.23a19,19,0,0,1,2.14-.38,12.32,12.32,0,0,1,2.43,0,7.26,7.26,0,0,1,1.22.15,1.35,1.35,0,0,1,.53.16.48.48,0,0,1,.31.6c0,.08-.08.16-.15.23a1.38,1.38,0,0,1-.39.23c-.3.08-.68.15-1,.23A4.75,4.75,0,0,0,86,98.6c-.08,0-.08,0-.15.08a.46.46,0,0,0,.3.07h1.9a8.11,8.11,0,0,1,1.38.16,1.38,1.38,0,0,1,.76.3.52.52,0,0,1,.22.69h0a.16.16,0,0,1-.15.15c-.07.07-.23.15-.38.3.15.16.31.23.46.38s.3.31.3.46a.43.43,0,0,1-.15.53,1.46,1.46,0,0,1-.38.23c0,.08.08.15.08.23a.55.55,0,0,1-.31.76h0c-.07.08-.23.08-.3.08a2.83,2.83,0,0,1-.76.07,6.89,6.89,0,0,0-2.14.31c-.68.23-1.37.46-2,.68s-1.06.39-1.59.54a4.44,4.44,0,0,1-1.38.23c-1,.07-1.9.22-2.89.38l-3.42.45C74.31,105.84,73.17,105.68,72,105.76Zm-11.88-1.14h0c.16.07.23.15.31.15a.38.38,0,0,0,.3.15.4.4,0,0,0,.31.15.69.69,0,0,0,.68,0c0,.08-.15.16,0,.23a1.8,1.8,0,0,0,.69.15c.23,0,.3-.07.46-.07s.22.15.38.15a7,7,0,0,1,1.29.08h.08a.33.33,0,0,1,.38,0h1.6c.07,0,.07-.08.07-.16s-.07-.07-.15-.07l.15.07c.08,0,.16,0,.08.16s0,.07.08.07.53.16.76-.15c0-.08.15-.08.15-.08a.46.46,0,0,0,.3-.07c-.15,0-.22,0-.3.07v.08a.08.08,0,0,0,.08.08h1.52c.15,0,.38.07.53-.08s.31.08.46,0h.38a3.51,3.51,0,0,0,.91-.08l2.29-.22c.76-.08,1.52-.16,2.28-.31.61-.07,1.22-.15,1.75-.23l1.6-.22a.27.27,0,0,0-.23-.08l-.3-.08a.07.07,0,0,1-.08-.07.08.08,0,0,1,.08-.08h.38a8.07,8.07,0,0,0,1.9.08,5.54,5.54,0,0,0,1.91-.31l1.44-.45c.76-.31,1.52-.54,2.29-.77a5.87,5.87,0,0,1,2-.3,2.49,2.49,0,0,0,.76-.08c.15-.07.38-.15.38-.3a.68.68,0,0,0-.23-.46,1.39,1.39,0,0,0-.69-.3h-1a14.06,14.06,0,0,0-2.58.23H85.2c-.07,0-.07-.08-.07-.08s0-.08.07-.08.23-.07.31-.07l.6-.08c.92-.08,1.76-.15,2.67-.15a2.58,2.58,0,0,1,1.07.23.88.88,0,0,0,.6,0c.23-.08.31-.23.16-.46a2.07,2.07,0,0,0-.61-.53,5.16,5.16,0,0,0-1.52-.46A13.28,13.28,0,0,0,86,99.9h-.3c-.08,0-.15,0-.15-.08a.15.15,0,0,1,.15-.15l.76-.08a7.73,7.73,0,0,1,3.2.23h.15a1.39,1.39,0,0,0,.53-.38.33.33,0,0,0,0-.38h-.07a.89.89,0,0,0-.61-.23,11,11,0,0,0-1.6-.15H84.74c-.07,0-.15,0-.15-.08a.17.17,0,0,1,.15-.15c.08-.08.23-.08.31-.15l.68-.23a8.09,8.09,0,0,1,1.37-.15,3,3,0,0,0,.84-.16.86.86,0,0,0,.54-.22c.07-.08.15-.16.15-.23s-.08-.15-.15-.23c-.23-.08-.46-.08-.69-.15a12.31,12.31,0,0,0-3-.08,2.46,2.46,0,0,0-.76.08l-2.29.45a17.23,17.23,0,0,1-2.74.46,17.57,17.57,0,0,1-2,.08,37.4,37.4,0,0,1-5.79-.31c-1.52-.23-3-.53-4.57-.91a2.2,2.2,0,0,1-1.06-.61L64.41,95a29.16,29.16,0,0,1-2-2.44C60.53,90,58.78,87.41,57,84.82l-.23-.38c0-.08-.08-.08-.15-.08h0l-.76.54a39.44,39.44,0,0,0-3.28,3c-1,1-1.9,2-2.81,3.12a16.76,16.76,0,0,0-1.3,1.9.36.36,0,0,0,0,.38,1,1,0,0,1,.23.31c-.23,0-.3-.23-.46-.23a5.62,5.62,0,0,0-.53,1.22,2.14,2.14,0,0,0,0,1.37.58.58,0,0,0,.61.45,2.8,2.8,0,0,0,.76-.07,2.76,2.76,0,0,0,1.07-.46c.3-.15.3-.15.23-.53.07,0,.22.07.22.15a7.18,7.18,0,0,0,1,1.07.65.65,0,0,0,.31.3c0,.15.23.15.23.23.07.3.38.38.53.61.08.07.15,0,.15.07a1.07,1.07,0,0,0,.53.61.08.08,0,0,0,.08.08,1,1,0,0,0,.38.38h.08s-.08.08,0,.08l.3.3h.08l.15.15c.08.08.08,0,.15,0h0s-.07.08,0,.08a3.91,3.91,0,0,0,.76.76c.08.08.23.08.23.23s.23.08.31.23a.82.82,0,0,0,.45.45c0,.08.08.08.16.08l.22.23c.08.08.16.23.31.23l.23.23.15.07a.65.65,0,0,0,.3.31l.23.23.31.3.23.23a1.89,1.89,0,0,0,.61.46,1,1,0,0,0,.3.22.08.08,0,0,0,.08.08h0l.15.15a1.6,1.6,0,0,0,.61.31Z"/><path class="cls-9" d="M74.31,85.35c0,.08,0,.16.08.16a5,5,0,0,0,.91.38h.16c.07,0,.15,0,.15.07s.23.23.3.31c.31.15.69.38,1,.53.08.08.15,0,.31,0s.22-.23.38-.23.15-.07.15,0,.08.08.08.15a.08.08,0,0,1-.08.08h0a.31.31,0,0,0-.31.15c-.07.15-.07.23,0,.31a3.18,3.18,0,0,0,.61.38c.08.07.23.07.23.23s.08.07.15.07h0c.16-.07.23,0,.23.15s.08.08.16,0,.15,0,.15.08a.4.4,0,0,0,.15.31,10.37,10.37,0,0,0,1,.83,3.67,3.67,0,0,1,.53.38.28.28,0,0,0,.23.08c.08,0,.08.08.15.08h0c-.07.15,0,.22.16.22s.22.23.3.31a1.89,1.89,0,0,0,.3.46l.23.22a.17.17,0,0,0,.16.16.78.78,0,0,1,.45.53c0,.08.15.15.23.08s.08,0,.15,0v.07a1.14,1.14,0,0,0,.31.84c.07.08.15.15.15.23a.42.42,0,0,0,.46.3c.07,0,.07.08.07.15-.07.23-.07.39.16.54a.16.16,0,0,1,.15.15.94.94,0,0,0,.3.61c0,.08.08.08,0,.15a.36.36,0,0,0,0,.38c.08.15.15.38.23.53V96c0,.08,0,.08-.08.08h0c-.07,0-.07,0-.15-.08a.25.25,0,0,1-.07-.15c-.16-.46-.38-.91-.54-1.29-.07-.23-.3-.38-.45-.69l-.23-.46a.73.73,0,0,1-.15-.38c0-.15-.39-.15-.31-.38s-.15-.3-.23-.45a1.4,1.4,0,0,0-.3-.46c-.31-.38-.61-.76-.92-1.07s-.83-.83-1.21-1.21a16.6,16.6,0,0,0-1.3-1.15,16,16,0,0,0-1.75-1.22,30.46,30.46,0,0,0-3.35-1.75c-.15-.07-.23-.07-.23-.22Z"/><path class="cls-9" d="M94.11,121.6a.88.88,0,0,1-.38.07c-.15-.07-.23-.15-.23-.3-.15-.53-.3-1.07-.46-1.52l-.61-2c-.3-.92-.53-1.91-.83-2.9a15.09,15.09,0,0,0-.61-1.9c-.31-.91-.54-1.9-.84-2.82a17.44,17.44,0,0,0-.61-1.9c-.3-1.14-.68-2.36-1.06-3.5v-.23c0-.31.07-.38.38-.31.07,0,.15.16.07.16a.44.44,0,0,0-.07.53c.07.23.15.53.22.84,0,.07.08.15.16.22s.15.16.07.31,0,.07.08.15.15.08.08.15a.45.45,0,0,0-.08.31c.08.23.15.53.23.76s.07.08.07.15h0a.94.94,0,0,0,.08.46c.38,1.29.76,2.59,1.14,4l.92,3c.3,1,.53,1.82.76,2.74l.07.15c.08.3.08.3.46.23h.08a.07.07,0,0,1,.07.07v.08c0,.08-.15.08-.23.08s-.15.15-.15.3a1.31,1.31,0,0,1,.23.76.17.17,0,0,0,.15.16h0c.15,0,.15.07.08.22-.15.31-.15.38.07.54s.16.15,0,.23a.28.28,0,0,0-.07.22l.07.31A1.86,1.86,0,0,0,94.11,121.6Z"/><path class="cls-9" d="M69.67,97.08,69.36,97a4.76,4.76,0,0,0-.07-1v-.45c0-.08.07-.16.15-.08h0c.08,0,.08.08.15.08v.07A9.46,9.46,0,0,0,69.67,97.08Z"/><path class="cls-9" d="M90.61,107.82V108a.07.07,0,0,1-.08.07s-.08,0-.08-.07a.19.19,0,0,0-.3-.15v-.08l.23-.08c.07,0,.15,0,.15.08S90.61,107.74,90.61,107.82Z"/><path class="cls-9" d="M89.85,108v-.08c0-.07,0-.15.07-.15s.08,0,.08.08,0,.15-.08.15Z"/><path class="cls-16" d="M70.81,105.84a1.45,1.45,0,0,1,.84-.08v.08Z"/><path class="cls-17" d="M92.59,125l.07.08a.3.3,0,0,1-.3.15A4.37,4.37,0,0,0,90,126.47a4.67,4.67,0,0,0-.92,1.22.61.61,0,0,0-.15.3h-.15a.07.07,0,0,1-.08-.07c0-.08,0-.16.08-.16A4.87,4.87,0,0,1,92.13,125Z"/><path class="cls-13" d="M80.56,75.07a.07.07,0,0,1,.07.08c0,.23.38.31.31.53.07,0,.07.08.15.16s.08.15,0,.22a.22.22,0,0,1-.3,0,.24.24,0,0,1-.08-.15,1.07,1.07,0,0,0-.31-.68S80.48,75.07,80.56,75.07Z"/><path class="cls-13" d="M79.8,74.54l.15.08v.07a.53.53,0,0,0,.23.46c.07,0,0,.15,0,.15a.25.25,0,0,1-.16.08h0l-.22-.23a.45.45,0,0,1-.08-.53Z"/><path class="cls-13" d="M80.1,76.29h.08l.61.38c.07,0,.07.08,0,.16h0c0,.07-.08.07-.16.07a2.36,2.36,0,0,1-.76-.38c-.07-.07-.07-.15,0-.15h0A.56.56,0,0,1,80.1,76.29Z"/><path class="cls-13" d="M79.34,73a.16.16,0,0,1-.15.15c-.16,0-.23,0-.31-.15s-.23-.31-.38-.38v-.15c0-.08.08-.08.15-.08a3.46,3.46,0,0,1,.61.46A.22.22,0,0,1,79.34,73Z"/><path class="cls-13" d="M79.87,72.41c.15.15.23,0,.38-.15s.15-.08.15,0h0l.08.07c0,.08,0,.16-.08.16s-.22.15-.38.22-.3,0-.38-.15,0-.15.08-.15h0C79.8,72.49,79.8,72.41,79.87,72.41Z"/><path class="cls-13" d="M82.08,76.83c0,.22-.08.3-.23.22s-.23-.07-.38-.15a.14.14,0,0,1,0-.23h0a.53.53,0,0,1,.46,0C82.08,76.75,82.08,76.83,82.08,76.83Z"/><path class="cls-13" d="M84.44,81.78h.15l.23.45a.24.24,0,0,1-.08.15c-.07.08-.15.08-.15,0l-.23-.45C84.29,81.85,84.36,81.78,84.44,81.78Z"/><path class="cls-13" d="M82.46,79.49a.16.16,0,0,1-.15-.15c0-.08,0-.15.07-.15l.46-.23c.08-.08.15,0,.15.07s0,.16-.07.16h0A1.89,1.89,0,0,1,82.46,79.49Z"/><path class="cls-13" d="M81.7,78l-.15.08a.28.28,0,0,1-.16-.08h0a.26.26,0,0,1,.08-.22.47.47,0,0,1,.46,0,.07.07,0,0,1,.07.07c0,.08,0,.15-.07.15H81.7Z"/><path class="cls-13" d="M77.51,71a.16.16,0,0,1-.15.15c-.08,0-.08,0-.15-.07a1.1,1.1,0,0,1-.16-.46.16.16,0,0,1,.16-.15c.07,0,.07,0,.15.07S77.43,70.89,77.51,71Z"/><path class="cls-13" d="M84.44,81.17a.17.17,0,0,1-.15.15h0c-.08,0-.15,0-.15-.08s-.08-.3-.16-.45a.25.25,0,0,1,.08-.16h.15A4.16,4.16,0,0,0,84.44,81.17Z"/><path class="cls-13" d="M81.32,75.23l-.08-.08c-.07-.08-.07-.15,0-.15l.31-.23c.07,0,.15,0,.15.08a.25.25,0,0,1,.07.15A.66.66,0,0,1,81.32,75.23Z"/><path class="cls-13" d="M80.79,77.21h.07a.57.57,0,0,0,.31.3c.07,0,.07.15,0,.15s-.08.08-.16.08h0c-.15-.08-.22-.15-.38-.23s-.07-.15-.07-.23.15-.07.23-.07Z"/><path class="cls-13" d="M83.6,81.32a.15.15,0,0,1-.23.07.52.52,0,0,1-.22-.45.07.07,0,0,1,.07-.08h.15l.23.46Z"/><path class="cls-13" d="M85.05,80.25a.42.42,0,0,1-.23.38h-.15c-.08,0-.08-.07-.08-.15a.4.4,0,0,1,.15-.3h.16C85,80.1,85,80.18,85.05,80.25Z"/><path class="cls-13" d="M82.08,74.47l-.08.07a.61.61,0,0,1-.45-.3.16.16,0,0,1,.15-.16,1,1,0,0,1,.38.39Z"/><path class="cls-13" d="M80.56,74.47c0-.23.07-.31.23-.23a.16.16,0,0,1,.15.15c0,.08-.08.15-.08.23a.16.16,0,0,1-.15.15h0a.31.31,0,0,1-.15-.3Z"/><path class="cls-13" d="M85.13,82.92c-.08.15-.16.23-.31.23a.16.16,0,0,1-.15-.16.42.42,0,0,1,.38-.23h0Z"/><path class="cls-13" d="M82.54,80.79h.07a.07.07,0,0,1,.08.07V81a.27.27,0,0,1-.23.08c-.08,0-.15,0-.15-.15s.07-.15.23-.15Z"/><path class="cls-13" d="M82.23,80a.17.17,0,0,1-.15-.15.2.2,0,0,1,.23-.23h0a.16.16,0,0,1,.15.15.25.25,0,0,1-.23.23Z"/><path class="cls-13" d="M83.83,78.88h-.15l-.08-.07v-.16c.08-.07.08-.07.15-.07s.23,0,.23.15,0,.15-.15.15Z"/><path class="cls-13" d="M79.49,74.47a.16.16,0,0,1-.15-.16h0c0-.07.07-.15.23-.15h0a.17.17,0,0,1,.15.15h0C79.72,74.39,79.64,74.47,79.49,74.47Z"/><path class="cls-13" d="M78.73,71.72a.45.45,0,0,1-.08.31.14.14,0,0,1-.23,0h0a.15.15,0,0,1,0-.23h0a.58.58,0,0,1,.31-.08Z"/><path class="cls-13" d="M86.19,82.08a.16.16,0,0,1-.15-.15h0a.15.15,0,1,1,.3,0C86.34,82,86.27,82,86.19,82.08Z"/><path class="cls-13" d="M79.19,70.28a.16.16,0,0,1-.31,0h0a.16.16,0,0,1,.15-.15h0A.16.16,0,0,1,79.19,70.28Z"/><path class="cls-13" d="M84.74,79.26a.15.15,0,1,1,0-.3h0a.15.15,0,1,1,0,.3Z"/><path class="cls-13" d="M80.1,68.3a.17.17,0,0,1-.15.15c-.08,0-.15-.08-.23-.15a.16.16,0,0,1,.15-.15C80,68.15,80.1,68.15,80.1,68.3Z"/><path class="cls-13" d="M78.42,68.45a.15.15,0,0,1-.15.15h0a.16.16,0,0,1-.15-.15c0-.08.08-.15.23-.15a.25.25,0,0,1,.07.15Z"/><path class="cls-13" d="M76.14,68.68a.16.16,0,0,1-.15.15.15.15,0,0,1-.15-.15h0a.15.15,0,0,1,.15-.15A.16.16,0,0,1,76.14,68.68Z"/><path class="cls-13" d="M78.73,71.72c0-.15-.15-.22,0-.3a.14.14,0,0,1,.23,0,.15.15,0,0,1,0,.23h0a.78.78,0,0,1-.23.07Z"/><path class="cls-13" d="M76.83,68.6a.16.16,0,0,1,0,.31h0a.17.17,0,0,1-.16-.15h0A.17.17,0,0,1,76.83,68.6Z"/><path class="cls-13" d="M80.33,71.57a.16.16,0,0,1-.15.15h0a.16.16,0,0,1-.16-.15h0a.16.16,0,0,1,.31,0Z"/><path class="cls-13" d="M83.22,79.87a.15.15,0,0,1-.15.15c-.15,0-.23-.07-.15-.15s.07-.15.15-.15A.16.16,0,0,1,83.22,79.87Z"/><path class="cls-13" d="M85.81,80.56a.15.15,0,0,1,0,.3h0a.15.15,0,0,1-.15-.15h0A.15.15,0,0,1,85.81,80.56Z"/><path class="cls-13" d="M77.36,67.61a.15.15,0,1,1,.3,0,.16.16,0,0,1-.15.16h0C77.36,67.77,77.36,67.69,77.36,67.61Z"/><path class="cls-13" d="M86.42,82.84c-.08,0-.15,0-.15-.08h0a.28.28,0,0,1,.07-.22h0a.16.16,0,0,1,.16.15A.28.28,0,0,1,86.42,82.84Z"/><path class="cls-13" d="M84.44,83.68c0,.07-.08.15-.23.15s-.07-.08-.15-.15.08-.15.23-.15S84.44,83.6,84.44,83.68Z"/><path class="cls-13" d="M79.49,71.12a.17.17,0,0,1-.15.15.16.16,0,0,1-.15-.15h0a.16.16,0,0,1,.15-.16.17.17,0,0,1,.15.16Z"/><path class="cls-13" d="M79.72,72a.16.16,0,0,1-.15.15.16.16,0,0,1-.16-.15h0a.16.16,0,0,1,.16-.15h0a.16.16,0,0,1,.15.15Z"/><path class="cls-13" d="M81.17,72.41a.16.16,0,0,1-.16.15h0a.15.15,0,1,1,0-.3h0A.16.16,0,0,1,81.17,72.41Z"/><path class="cls-13" d="M80.94,73.4h-.31l-.07-.08c0-.07,0-.15.07-.15s.23,0,.23.08v.07a.08.08,0,0,0,.08.08Z"/><path class="cls-13" d="M83.37,75.23a.16.16,0,0,1-.15.15c-.07,0-.23-.08-.23-.15a.17.17,0,0,1,.16-.16c.07,0,.15,0,.22.16Z"/><path class="cls-13" d="M82.54,74.69a.17.17,0,0,1-.16.16h0c-.07,0-.22-.08-.22-.16a.16.16,0,0,1,.15-.15c.07,0,.23.08.23.15Z"/><path class="cls-13" d="M78,72.71c-.07,0-.15,0-.15-.07h0a.16.16,0,0,1,.15-.15c.08,0,.16,0,.16.07S78.2,72.71,78,72.71Z"/><path class="cls-13" d="M80.94,73.4h.15c.15,0,.23.08.23.15s-.08.08-.15.15a.21.21,0,0,1-.23-.15V73.4Z"/><path class="cls-13" d="M78.42,73a.17.17,0,0,1,.16.15.16.16,0,0,1-.16.15h-.07c-.08,0-.15,0-.15-.07a.24.24,0,0,1,.22-.23Z"/><path class="cls-13" d="M82.69,72.94a.17.17,0,0,1-.15.16h0a.17.17,0,0,1-.16-.16c0-.07.16-.15.23-.15S82.69,72.87,82.69,72.94Z"/><path class="cls-13" d="M85.13,84.21a.16.16,0,0,1-.16-.15h0a.16.16,0,0,1,.16-.15.16.16,0,0,1,.15.15C85.35,84.14,85.2,84.21,85.13,84.21Z"/><path class="cls-13" d="M83.37,82.61h.31c.07,0,.07.08.07.15h0a.26.26,0,0,1-.22.08c-.08,0-.16-.15-.16-.23Z"/><path class="cls-13" d="M80.86,71.27c0,.07-.07.15-.23.15a.17.17,0,0,1-.15-.15h0c0-.08.15-.15.23-.15S80.86,71.19,80.86,71.27Z"/><path class="cls-13" d="M84.82,78a.17.17,0,0,1-.15.16.16.16,0,0,1-.15-.16.16.16,0,0,1,.15-.15.17.17,0,0,1,.15.15Z"/><path class="cls-13" d="M83.75,80.18c.08,0,.16,0,.16.15a.17.17,0,0,1-.16.15h0c-.07,0-.22-.08-.15-.15S83.68,80.18,83.75,80.18Z"/><path class="cls-13" d="M78.42,69.44c-.07,0-.15,0-.15-.08a.17.17,0,0,1,.15-.15h0a.17.17,0,0,1,.16.15h0C78.58,69.44,78.58,69.44,78.42,69.44Z"/><path class="cls-13" d="M84.59,79.49c.08,0,.15,0,.15.15a.16.16,0,0,1-.15.16h0c-.07,0-.23-.08-.15-.16S84.52,79.49,84.59,79.49Z"/><path class="cls-13" d="M77.13,69.9c0,.07,0,.15-.08.15h0c-.07,0-.22,0-.22-.15h0c0-.08,0-.16.07-.16S77.13,69.82,77.13,69.9Z"/><path class="cls-13" d="M82.23,78.73c.08,0,.15,0,.15.15a.15.15,0,0,1-.15.15h0c-.07,0-.15,0-.15-.15S82.08,78.65,82.23,78.73Z"/><path class="cls-13" d="M81.55,76.14a.17.17,0,0,1-.16-.15.16.16,0,0,1,.16-.15.16.16,0,0,1,.15.15h0A.17.17,0,0,1,81.55,76.14Z"/><path class="cls-13" d="M84.9,81.09a.16.16,0,0,1-.16.15h0a.16.16,0,0,1-.15-.15h0a.16.16,0,0,1,.15-.15c.16.07.16.07.16.15Z"/><path class="cls-13" d="M84.59,85.13c-.07,0-.15,0-.15-.08h0a.24.24,0,0,1,.08-.15h0c.07,0,.15,0,.15.07s.07.16-.08.16Z"/><path class="cls-13" d="M78.2,70.51c-.08,0-.16-.08-.08-.16h0c0-.07.08-.07.15-.07h0a.15.15,0,0,1,.15.15c-.07.08-.15.15-.22.08Z"/><path class="cls-13" d="M86.34,79.41a.16.16,0,0,1-.15.16h0a.16.16,0,0,1-.15-.16h0a.16.16,0,0,1,.15-.15h0Z"/><path class="cls-13" d="M80.1,70.66a.17.17,0,0,1-.15.15h0a.16.16,0,0,1-.15-.15.25.25,0,0,1,.07-.15h0c.15,0,.23.07.23.15Z"/><path class="cls-13" d="M80.25,69.82c-.07.15-.07.15-.15.15a.15.15,0,1,1,0-.3h.08Z"/><path class="cls-13" d="M83.83,79.72c.08,0,.15,0,.15.15a.15.15,0,0,1-.15.15h0a.15.15,0,0,1-.15-.15A.16.16,0,0,1,83.83,79.72Z"/><path class="cls-13" d="M82.92,78.27a.16.16,0,0,1,0,.31c-.08,0-.08-.08-.16-.08.08-.15.08-.23.16-.23Z"/><path class="cls-13" d="M77.51,69a.16.16,0,0,1,.15.16c0,.07-.07.15-.15.07h0a.25.25,0,0,1-.15-.07h0a.16.16,0,0,1,.15-.16Z"/><path class="cls-13" d="M80,73.48c.08,0,.16.07.08.15s-.08.07-.08.07h0a.16.16,0,0,1-.15-.15h0a.29.29,0,0,1,.15-.07Z"/><path class="cls-13" d="M78.42,71.19a.16.16,0,0,1-.15-.15h0a.16.16,0,0,1,.15-.15.16.16,0,0,1,.16.15c0,.15-.08.15-.16.15Z"/><path class="cls-13" d="M79.64,75.53c0,.08-.07.08-.15.08h-.08c-.07,0-.07-.08-.07-.15h0a.16.16,0,0,1,.15-.16h0c.08.08.15.16.15.23Z"/><path class="cls-13" d="M83.37,80.4c0,.08,0,.16-.07.16s-.15,0-.15-.08h0c0-.08,0-.15.07-.15h0a.23.23,0,0,1,.15.07Z"/><path class="cls-13" d="M83,77.51c0,.08-.07.08-.15.08a.16.16,0,0,1-.15-.15h0c0-.08.07-.16.15-.08h0a.16.16,0,0,1,.15.15Z"/><path class="cls-13" d="M78.2,70c-.08.16-.08.16-.16.16a.17.17,0,0,1-.15-.16V69.9c0-.08.08-.08.15-.08Z"/><path class="cls-13" d="M86.5,81a.17.17,0,0,1-.16.16h0a.17.17,0,0,1-.15-.16h0a.17.17,0,0,1,.15-.15h0C86.5,80.86,86.5,80.94,86.5,81Z"/><path class="cls-13" d="M82.54,76.37a.17.17,0,0,1,.15.15h0c0,.08-.08.08-.15.08s-.16,0-.16-.08h0c0-.15.08-.15.16-.15Z"/><path class="cls-13" d="M85.43,81.39c0,.08-.08.16-.15.08h0c-.08,0-.08-.08-.08-.15h0c0-.08.08-.15.15-.08s.08.08.08.15Z"/><path class="cls-13" d="M86.65,83.6a.16.16,0,0,1-.15.15h0c-.08,0-.08-.07-.08-.15a.17.17,0,0,1,.15-.15c.08,0,.15,0,.08.15Z"/><path class="cls-13" d="M82.76,81.47c0,.08,0,.15-.07.15h0a.15.15,0,1,1,0-.3h0C82.69,81.39,82.76,81.39,82.76,81.47Z"/><path class="cls-13" d="M83.15,77.05c0,.08,0,.16-.08.16h0a.16.16,0,0,1-.15-.16.16.16,0,0,1,.15-.15h0C83.15,76.9,83.15,77,83.15,77.05Z"/><path class="cls-13" d="M83.6,81.85a.15.15,0,0,1-.15.15h0c-.08,0-.08-.07-.15-.15a.16.16,0,0,1,.15-.15h0Z"/><path class="cls-13" d="M85.73,82.31a.16.16,0,0,1-.15.15h0c-.07,0-.07-.08-.07-.15h0c0-.08,0-.15.07-.15h0a.15.15,0,0,1,.15.15Z"/><path class="cls-13" d="M87.71,83.07a.25.25,0,0,1-.07.15h0c-.08,0-.15,0-.15-.07s0-.16.07-.16h.08C87.64,82.92,87.71,83,87.71,83.07Z"/><path class="cls-13" d="M83.37,82.61a.26.26,0,0,1-.3-.23c0-.07.08-.07.08-.07s.15,0,.15.07h0a.31.31,0,0,1,.07.23Z"/><path class="cls-13" d="M83.53,74.31c-.08,0-.16,0-.16-.15a.16.16,0,0,1,.16-.15h0a.16.16,0,0,1,.15.15h0Z"/><path class="cls-13" d="M81.32,72c-.08,0-.15,0-.15-.15s0-.16.07-.16h0a.16.16,0,0,1,.15.16h0C81.47,72,81.39,72,81.32,72Z"/><path class="cls-8" d="M70.51,72.56a2.49,2.49,0,0,1,1.29.31c.15.07.23.15.15.23s-.23.07-.23,0A3.31,3.31,0,0,0,69.14,73a3.5,3.5,0,0,0-.77.3.28.28,0,0,0-.15.08.17.17,0,0,1-.15-.15c0-.08,0-.08.08-.15A.24.24,0,0,1,68.3,73,8.77,8.77,0,0,1,70.51,72.56Z"/><path class="cls-8" d="M73.4,68.83c0,.08,0,.08-.08.08l-.15.15a1,1,0,0,0-.53.46.33.33,0,0,1-.53.15h0c-.08,0-.08-.08-.16-.08a1.46,1.46,0,0,0-.61-.3c-.15-.08-.38-.15-.53-.23a.14.14,0,0,1,0-.23h0c0-.07.08-.07.15-.07l.16.07a1.93,1.93,0,0,0,1.82-.15l.23-.08C73.25,68.68,73.4,68.76,73.4,68.83Z"/><path class="cls-8" d="M66.7,69.21a.27.27,0,0,1,.23.08,2.06,2.06,0,0,0,2-.15l.15-.08c.08,0,.15,0,.15.08s.08.15,0,.15l-.15.15a.75.75,0,0,0-.53.53.42.42,0,0,1-.54.16h0c-.15-.08-.22-.08-.22-.16a.43.43,0,0,0-.39-.23c-.15-.07-.38-.07-.53-.15a.29.29,0,0,1-.15-.07v-.31Z"/><path class="cls-8" d="M68.15,66.93a1.7,1.7,0,0,1,1.14.45c.07.08.07.16,0,.16s-.08.07-.15.07-.16,0-.16-.07a2.8,2.8,0,0,0-1.37-.16h-.15c-.08,0-.15,0-.15-.07a.3.3,0,0,1,.07-.23A2.2,2.2,0,0,1,68.15,66.93Z"/><path class="cls-8" d="M72.56,66.62h.23a.08.08,0,0,1,.08.08c0,.08,0,.15-.08.15h-.08a3.53,3.53,0,0,0-1.44.61l-.08.08c-.07,0-.15.07-.15,0a.14.14,0,0,1,0-.23h0A1.72,1.72,0,0,1,72.56,66.62Z"/><path class="cls-18" d="M69.9,71.42h-.16c-.07,0-.07-.08-.07-.08s0-.07.07-.15.08,0,.16-.07a1.58,1.58,0,0,0,.83-.31.28.28,0,0,1,.16-.08H71v.16A.07.07,0,0,1,71,71,1.47,1.47,0,0,1,69.9,71.42Z"/><path class="cls-13" d="M64.72,76.22c0,.15-.23.23-.38.15s-.08-.08-.08-.15l.23-.23c.08,0,.08-.08.15,0S64.72,76.06,64.72,76.22Z"/><path class="cls-13" d="M62.36,74.47a1.08,1.08,0,0,1,.46.15v.07a.08.08,0,0,1-.08.08,1.24,1.24,0,0,1-.46-.15v-.08Z"/><path class="cls-13" d="M63.5,78.35h0a.52.52,0,0,1-.46-.08V78.2a.08.08,0,0,1,.08-.08,2,2,0,0,1,.38.23Z"/><path class="cls-13" d="M63.35,76.67l-.15-.07v-.08a.25.25,0,0,1,.15-.07c.15,0,.3,0,.23.07S63.43,76.6,63.35,76.67Z"/><path class="cls-13" d="M63.2,77.21H63v-.08a.08.08,0,0,1,.08-.08h.31a.07.07,0,0,1,.07.08c0,.08,0,.08-.07.08Z"/><path class="cls-13" d="M65.18,77.59H65c-.15-.08-.22-.15-.15-.15h.38v.07C65.33,77.59,65.25,77.59,65.18,77.59Z"/><path class="cls-13" d="M63.81,77.82a.17.17,0,0,1-.16-.16h0c0-.07,0-.07.08-.07h0a.15.15,0,0,1,.15.15h0s0,.08-.07.08Z"/><path class="cls-13" d="M63,76.06c-.07,0-.22,0-.22-.15v-.07c.15-.08.22,0,.3.07S63,76,63,76.06Z"/><path class="cls-13" d="M64.11,76.75v.08H64c-.07-.08-.07-.08-.07-.16s0-.15.07-.15h.08v.23Z"/><path class="cls-13" d="M65.79,77.36h.07l.08.08c0,.07,0,.07-.08.07h-.15c-.08,0-.08,0-.08-.07h0c0-.16.08-.16.16-.08Z"/><path class="cls-13" d="M66.24,76.83a.16.16,0,0,1-.15.15h0C66,77,66,77,66,76.9h0c0-.07.08-.15.23-.07Z"/><path class="cls-13" d="M65.48,77c0,.07-.08.07-.08.07h0L65.33,77s0-.08.07-.08h0Z"/><path class="cls-11" d="M51.62,96.77a6.65,6.65,0,0,1-1-1.06c-.07-.08-.15-.15-.22-.15h0a.2.2,0,0,0-.23-.23H50.1c0-.08,0-.08-.08-.08h0c0-.07,0-.07-.07-.07h0c0-.08,0-.08-.08-.08h0c0-.08,0-.08-.07-.08h0c0-.07,0-.07-.08-.07h0c0-.08,0-.08-.08-.08h0a.07.07,0,0,0-.07-.07h0a.25.25,0,0,0-.23-.23h0c0-.08,0-.08-.08-.08h0c0-.08,0-.08-.07-.08h0c0-.07,0-.07-.08-.07h0c0-.08,0-.08-.08-.08h0c0-.07,0-.07-.07-.07h0c0-.08,0-.08-.08-.08h0a.84.84,0,0,0-.23-.3.38.38,0,0,1,0-.39,16.76,16.76,0,0,1,1.3-1.9,27.87,27.87,0,0,1,2.82-3.12,37.8,37.8,0,0,1,3.27-3,4.37,4.37,0,0,1,.76-.53c.08-.08.15-.08.15,0h0l.23.38c1.75,2.59,3.5,5.18,5.41,7.69a29.12,29.12,0,0,0,2,2.43,13.69,13.69,0,0,0,1.14,1.15,3.07,3.07,0,0,0,1.07.61,32,32,0,0,0,4.56.91,29.32,29.32,0,0,0,5.79.3,20.26,20.26,0,0,0,2.06-.07,17.62,17.62,0,0,0,2.74-.46l2.28-.46a2.8,2.8,0,0,1,.76-.07,19.65,19.65,0,0,1,3,.07,2.16,2.16,0,0,1,.69.16c.07,0,.15.07.15.22s-.08.16-.15.23a2.82,2.82,0,0,1-.54.23c-.3.08-.53.08-.83.15a7.88,7.88,0,0,0-1.37.16l-.69.22c-.07.08-.23.08-.3.16s-.16.07-.16.15.08.08.16.08h3.27a10.82,10.82,0,0,1,1.6.15c.23,0,.38.15.61.23s.15.22.07.38V100a1.94,1.94,0,0,1-.53.38h-.15a11.51,11.51,0,0,0-3.2-.22l-.76.07a.16.16,0,0,0-.15.15c0,.08.07.08.15.08h.3c.84-.08,1.68-.08,2.52-.08a2.79,2.79,0,0,1,1.52.46,1.34,1.34,0,0,1,.61.53c.15.23.08.38-.15.46a.8.8,0,0,1-.61,0,2.5,2.5,0,0,0-1.07-.23,15.83,15.83,0,0,0-2.66.15l-.61.08a.45.45,0,0,0-.31.08.07.07,0,0,0-.07.07.07.07,0,0,0,.07.08h.31c.84-.15,1.75-.15,2.59-.23h1a1.12,1.12,0,0,1,.68.3.37.37,0,0,1,.23.46c-.08.15-.23.31-.38.31a2.8,2.8,0,0,1-.76.07,5.63,5.63,0,0,0-2,.31c-.76.23-1.52.53-2.29.76-.45.15-1,.3-1.44.46a7.79,7.79,0,0,1-1.91.3,15.18,15.18,0,0,1-1.9-.08h-.38c-.08,0-.08,0-.08.08h0c0,.08,0,.08.08.08l.3.07a.26.26,0,0,1,.23.08l-1.6.23-1.75.22c-.76.08-1.52.16-2.28.31l-2.29.23a4,4,0,0,1-.91.07h-.38c-.15.08-.3-.15-.46,0s-.3.08-.53.08H67.69v-.08c.08-.07.23-.15.3-.07s-.15.07-.3.07-.15,0-.15.08c-.23.3-.54.15-.76.15l-.08-.07c0-.08,0-.08-.08-.16h0l-.15-.07c.08,0,.08.07.15.07v.16H65c-.15,0-.22-.08-.38,0h-.07a6.67,6.67,0,0,0-1.3-.08c-.15,0-.23-.15-.38-.15s-.3.07-.45.07a2.62,2.62,0,0,1-.69-.15c-.23-.07,0-.15,0-.23-.23,0-.46.16-.69,0v-.15c0-.15-.07-.15-.15-.08l-.07.08a.64.64,0,0,1-.31-.15.16.16,0,0,1,.15-.15c.16-.08.23-.16.38,0s.46,0,.54-.23v-.15c-.08-.08-.08-.08-.15,0h0a.59.59,0,0,1-.61.07c-.08-.07-.08-.07-.08-.15v-.15c0-.15-.08-.31-.3-.23s-.08-.08-.16-.08a.16.16,0,0,0-.15-.15c-.15,0-.38,0-.46.23,0,.08-.15.08-.22.08h0c0-.08.15-.23.07-.31a3.25,3.25,0,0,1-.23-.46c-.07-.15-.15-.07-.15-.07s-.15.23-.23.38,0,.15.16.15.15.08.15.15v.23h0a2.15,2.15,0,0,1-.76-.46.46.46,0,0,0,.07-.53l-.07-.07H58.4c-.15.07-.08.3-.23.38l-.3-.31.07-.07s.08-.31.23-.39,0-.07-.07-.15-.16,0-.16-.15.16-.23.31-.15h.38c.07,0,.07-.08.07-.08h0c-.15-.23-.22-.23-.45-.07s-.15.07-.23.22-.08.16-.15.08-.23,0-.31.08l-.23.22-.22-.22a.26.26,0,0,1,.22-.08.08.08,0,0,0,.08-.08c0-.22-.15-.3-.3-.15s-.16.08-.23.15l-.23-.22a1.07,1.07,0,0,1,.53-.23c.08,0,.08-.16,0-.23-.3-.31-.38-.31-.53.15,0,.08-.08.15-.08.23a1.21,1.21,0,0,1-.45-.46c-.08-.15-.23-.07-.31-.23s-.15-.15-.23-.22a7.46,7.46,0,0,1-.76-.69v-.08a.28.28,0,0,1,.38.16c.08.15.15.22.23.15s0-.15,0-.31-.08-.15-.15-.22-.15-.16-.31-.16-.07-.07-.07-.15v-.07l-.08-.08c-.07,0-.15,0-.15.08h0c-.08.15-.08.3-.15.45l-.31-.3c-.07-.08,0-.08,0-.08h.23v-.07c0-.08,0-.08-.08-.08h0c-.15,0-.15.08-.15.23s-.07.07-.07,0a.87.87,0,0,1-.38-.38h0c.22,0,.22-.16.3-.31s0-.07-.08-.15a.33.33,0,0,0-.38-.08c-.15.08,0,.23,0,.31v.07h0a1,1,0,0,1-.53-.6c0-.08-.15-.08-.15-.08-.15-.23-.46-.31-.54-.61,0-.08-.22-.08-.22-.23.15-.15.15-.15.07-.3s-.07-.08,0-.16l.15-.38c0-.07,0-.07-.07-.15s-.15,0-.15.08C51.85,96.47,51.78,96.62,51.62,96.77Zm10.59,7.39V104a.16.16,0,0,0-.16-.15.5.5,0,0,1-.45-.08c-.15-.08-.15.08-.15.15a.34.34,0,0,0,.22.23.63.63,0,0,1,.54,0c.07.23.07.23-.16.31l-.3.07c-.08,0-.15.08-.08.15h0a.17.17,0,0,0,.16.16c.3.07.45-.23.68-.31s0-.23,0-.3,0-.16.08-.16.15-.15.15-.22v-.16h-.15c-.15.16-.23.38-.38.46Zm2.2.53a1.35,1.35,0,0,0,.16-.53c0-.08,0-.08-.08-.08s-.08,0-.15.08a.28.28,0,0,0-.08.15c0,.16-.07.31-.23.31s-.15.07-.22.15a.15.15,0,0,0,.07.23.74.74,0,0,1,.38.07.2.2,0,0,1,.15.31c-.07.15-.15.15-.07.23s.15-.08.23-.16a.07.07,0,0,1,.07-.07.27.27,0,0,0,.08-.23c0-.3-.15-.46-.31-.46Zm-5.55-2.13h.45a.16.16,0,0,0,.16-.15.41.41,0,0,0-.16-.31h-.07a.34.34,0,0,1-.54.16h-.07a.15.15,0,0,0-.15.15.07.07,0,0,0,.07.08h0Zm-1.75-1.37v.08c0,.07,0,.15.07.15s.15,0,.15-.08,0-.23.16-.3h0c.07-.08.22-.08.3-.15v-.16a.29.29,0,0,0-.15-.07l-.46.23c-.07,0-.15.15-.07.3Zm5.93,3.2v-.15c0-.08-.07-.08-.15-.08s-.07,0-.07.08v.07c.07.16-.08.38-.23.46s-.08.15-.08.15h0c0,.08.15.08.23,0s.38-.3.3-.53Zm-4.72-4h-.15a1.38,1.38,0,0,0-.3.76c0,.08,0,.08.07.08h0a.08.08,0,0,0,.08-.08,6.34,6.34,0,0,0,.3-.76Zm.77,1.37c0-.08-.08-.23-.16-.23s-.15.08-.15.15-.08.16-.08.31a.07.07,0,0,0,.08.07h.08a1.15,1.15,0,0,0,.23-.3Zm2.2,2.21c-.07-.08-.15-.23-.23-.31s-.15,0-.22.08-.08.15,0,.3a.32.32,0,0,0,.38.08c.15-.08.07-.15.07-.15ZM59.77,101l-.23.08v.07a.08.08,0,0,0,.08.08c.15,0,.23,0,.3.15s.08.08.15.08a.28.28,0,0,0,.08-.15c0-.08-.08-.16-.08-.31-.15,0-.22-.07-.3,0Zm3.81,3.58h0a.5.5,0,0,0,.3-.38.07.07,0,0,0-.07-.08.26.26,0,0,0-.23.08.34.34,0,0,0-.08.38c.08.15.08-.07.08,0Zm-3.81-1.29h0s-.23-.16-.15-.31-.08-.07-.15-.07a.37.37,0,0,0-.16.3c0,.08.08.08.16.15l.22.08h.16c0-.08,0-.15-.08-.15Zm5.86.61v-.08c0-.08-.07-.15-.15-.08h0c-.08,0-.08.08-.15.08v.15c0,.23,0,.31.15.31s.15-.16.15-.38Zm-9.9-3.66h.08a.07.07,0,0,0,.08-.07c0-.08,0-.16-.08-.16s-.08-.07-.15-.07-.23.07-.23.15h0c0,.08,0,.15.15.15Zm1.76.08v-.23c0-.08-.08-.15-.16-.08h0c-.15.08-.22.15-.07.31s.07.15.15.23h.08v-.23Zm7.69,5.1a.65.65,0,0,0,.3-.15v-.16a.24.24,0,0,0-.3,0c-.08.08-.08.08-.08.16s0,.15.08.15Zm-3.05-1.83h.31c.07,0,.07-.07,0-.15a.28.28,0,0,0-.39-.08l-.07.08v.08h0a.25.25,0,0,1,.15.07Zm4-.61h0a.27.27,0,0,0-.16-.07c-.07.07-.22.22-.22.3v.08a.07.07,0,0,1,.07.07.51.51,0,0,0,.31-.38ZM51,94.8c0,.15,0,.22.16.22s.15-.07.15-.22v-.16c0-.07-.08-.07-.08-.07s-.07,0-.15.07a.25.25,0,0,0-.08.16Zm2.52,2.28c.07,0,.15,0,.15-.08s.08-.07.08-.15a.08.08,0,0,0-.08-.08h-.31c-.07,0-.07.08-.07.16s0,.07.07.15Zm15.91,7.46a1.43,1.43,0,0,0-.3-.38h-.08l-.08.08c0,.15.16.3.23.38h.08c.07-.08.07-.08.15-.08Zm-10.58-3.35c0-.08-.08-.15-.16-.23s-.22.08-.22.23.07.15.22.15c0,0,.16-.07.16-.15Zm1,1.07h0c-.08,0-.16,0-.16.07s0,.08.08.08l.15.08a.27.27,0,0,0,.23-.08v-.15a.27.27,0,0,0-.23-.08ZM55.35,98c0-.07,0-.07-.07-.15a.16.16,0,0,0-.15-.15h-.08c-.08,0-.08.07-.08.15s0,.08.08.15.08.08.15.08.15,0,.15-.08Zm8.15,6.7a.16.16,0,0,0-.15-.15c-.15,0-.23.08-.23.15s0,.16.15.16.16,0,.16-.08h0c0,.08.07,0,.07-.08Zm-2.74-2.36h0c-.08-.15-.15-.15-.23-.15a.17.17,0,0,0-.15.15c0,.08,0,.08.08.08h0a.26.26,0,0,0,.22-.08C60.68,102.41,60.76,102.41,60.76,102.33Zm-4.87-3.27s0,.08.07.08.23,0,.31-.08V99c0-.07-.08,0-.08-.07a.3.3,0,0,0-.3.15ZM53.3,97.84h0c.07,0,.15,0,.15-.08s-.08-.07-.15-.15a.25.25,0,0,1-.15-.07.16.16,0,0,0-.16.15c0,.07,0,.15.08.15h.23Zm12.56,6.55h-.15a.08.08,0,0,0-.08.08c0,.07,0,.07.08.15l.08.07c.07,0,.15.08.22,0v-.15c0-.15-.07-.15-.15-.15Zm-5.71-1.52h-.08c-.07,0-.07,0-.07.07s0,.08.07.08l.16.07c.07,0,.15,0,.15-.07a.16.16,0,0,0-.15-.15Zm-7.46-6.4h0c-.15-.08-.31,0-.31.08h0v.07a.08.08,0,0,0,.08.08.17.17,0,0,0,.23-.23Zm2.44,2.28c0-.15-.16-.3-.23-.22a.15.15,0,0,0-.15.15.24.24,0,0,0,.22.23c.23-.08.16-.16.16-.16Zm4.49,3c0-.07-.23-.3-.31-.22h-.07c-.08.07-.08.15,0,.3a.14.14,0,0,0,.23,0,.22.22,0,0,1,.15-.08Zm9.13,3.51-.07.07c0,.15.15.23.3.23a.08.08,0,0,0,.08-.08h0a.22.22,0,0,0-.31-.22Zm-4.34-2.82a.15.15,0,0,0-.15-.15c-.07,0-.15-.08-.23,0s0,.15.08.23h0c.08,0,.08.07.15.07l.15-.15Zm2.82,1.14a.16.16,0,0,0,0,.31h0a.24.24,0,0,0,.15-.08c0-.08,0-.23-.15-.23Zm-6.32-.3c.08,0,.15-.08.23-.16V103c-.08-.08-.15-.08-.15,0a.15.15,0,0,0-.15.15h0c0,.08,0,0,.07.08ZM65,103h.16c.07,0,.07-.08.07-.15s-.07-.08-.15-.08h0l-.15.08A.25.25,0,0,0,65,103Zm-8.37-3a.6.6,0,0,0-.15-.38h-.08c0,.15,0,.3.15.38s0,.08.08,0c0,.08-.08.08,0,0Zm-1.37-.84c-.08,0-.15,0-.15.08a.16.16,0,0,0,.15.15h0a.17.17,0,0,0,.15-.15h0c0-.08-.15-.08-.15-.08Zm11.42,4.72c-.08,0-.08,0-.08.08a.17.17,0,0,0,.16.15c.07,0,.15.08.15,0v-.08c-.08-.07-.15-.15-.23-.15ZM54,98.45c-.07,0-.07.08-.07.15h0c0,.08.07.08.15.08h0c.08,0,.08-.08.08-.15h0c0-.08-.08-.16-.16-.08Zm6.32,3.27c0-.07,0-.07-.07-.07h0c-.08,0-.16,0-.16.07h0a.28.28,0,0,0,.08.16c.15,0,.23-.08.15-.16Zm6.86,3.2a.17.17,0,0,0-.16-.15h0c-.07,0-.07,0-.07.08a.16.16,0,0,0,.15.15h0a.08.08,0,0,0,.08-.08ZM53.91,97.61a.24.24,0,0,0-.15.08h0v.07a.07.07,0,0,0,.07.08h0a.16.16,0,0,0,.15-.15.07.07,0,0,0-.07-.08Zm10.73,6.09c-.07,0-.07.08-.07.08h0a.07.07,0,0,0,.07.08h0c.08,0,.16-.08.08-.16Zm-4.26-3.19c0-.08,0-.08-.08-.08s-.15,0-.15.08,0,.07.08.07.07,0,.15-.07Zm4.87,4c0-.08,0-.16-.15-.08a.08.08,0,0,0-.08.08c0,.07,0,.15.08.15s.08-.08.15-.15Zm-3.5-1.22c0-.08-.08-.08-.15-.08a.08.08,0,0,0-.08.08h0c0,.07.08.07.15.07l.08-.07Z"/><path class="cls-2" d="M50.33,95.48c.08.38.08.38-.23.53s-.68.31-1.07.46a2.43,2.43,0,0,1-.76.08.67.67,0,0,1-.61-.46,2.14,2.14,0,0,1,0-1.37,3.53,3.53,0,0,1,.54-1.22c.15,0,.23.23.45.23h0c0,.08,0,.08.08.08h0c0,.07.08.07.08.07h0a.07.07,0,0,0,.07.08h0c0,.07,0,.07.08.07h0c0,.08,0,.08.07.08h0c0,.08,0,.08.08.08h0c0,.15,0,.22.23.22h0c0,.08,0,.08.08.08h0a.07.07,0,0,0,.07.08h0c0,.07,0,.07.08.07h0c0,.08,0,.08.07.08h0c0,.08,0,.08.08.08h0c0,.07,0,.07.08.07h0c0,.08,0,.08.07.08h0a.21.21,0,0,0,.23.23Z"/><path class="cls-13" d="M59.24,103.86c.07,0,.15-.08.23-.08.07-.23.22-.23.45-.23a.16.16,0,0,1,.15.15c0,.08.08.16.16.08.23-.08.3.08.3.23v.15c0,.08,0,.08.08.15a.46.46,0,0,0,.61-.07c.07-.08.15-.08.15,0h0v.15c-.15.23-.38.38-.53.23s-.23,0-.38,0-.08.07-.16.15-.15-.08-.23-.15.23-.23.08-.38,0-.16.08-.16,0-.15-.16-.15-.15,0-.22-.07-.08-.16-.23-.08l-.38.3c-.08,0-.08,0-.08-.07h0A.24.24,0,0,0,59.24,103.86Z"/><path class="cls-13" d="M57,102.26l.23-.23c.07-.08.15-.08.3-.08s.15,0,.15-.07.16-.16.23-.23c.23-.15.31-.15.46.07v.16h-.15a.4.4,0,0,0-.31.15.17.17,0,0,0,.16.15c.07,0,.15.15.07.15a.43.43,0,0,0-.23.38c0,.16-.07.08-.07.08s-.23-.15-.23-.23a.22.22,0,0,0,.07-.3h0c-.07-.08-.15,0-.22,0H57Z"/><path class="cls-13" d="M54.21,99.59c.08-.15.08-.3.15-.45s.08-.08.16-.08h0c.07,0,.07.08.07.08v.07c0,.08,0,.15.08.15a.39.39,0,0,0,.3.16c.08,0,.16.07.16.22s.07.16,0,.31-.16,0-.23-.15a.28.28,0,0,0-.38-.16h0c-.08-.15-.16-.15-.31-.15Z"/><path class="cls-11" d="M59.31,104.16l.38-.3c.16-.08.16-.08.23.07s.15.08.23.08.15,0,.15.15-.07.15-.07.15c.15.16,0,.31-.08.38h-.08c-.07-.15-.07-.22-.15-.38s-.23-.23-.45-.07C59.39,104.24,59.31,104.24,59.31,104.16Z"/><path class="cls-13" d="M51.62,96.77a1.4,1.4,0,0,0,.23-.6c0-.08.08-.08.15-.08s.08.08.08.15l-.15.38v.15a.24.24,0,0,1-.08.31C51.78,97,51.62,96.85,51.62,96.77Z"/><path class="cls-13" d="M56.19,101.42c0-.08.08-.15.08-.23.15-.46.23-.46.53-.15.08.07.08.23,0,.23s-.3.23-.53.23C56.27,101.57,56.19,101.5,56.19,101.42Z"/><path class="cls-7" d="M58,103.17c.15-.08.08-.3.23-.38h.07a.08.08,0,0,1,.08.08.63.63,0,0,1-.08.53A1.11,1.11,0,0,1,58,103.17Z"/><path class="cls-7" d="M56.5,101.8c.07,0,.15-.08.22-.15s.31,0,.31.15,0,.08-.08.08a.31.31,0,0,0-.23.07C56.65,102,56.57,101.88,56.5,101.8Z"/><path class="cls-13" d="M59.47,104.24c.22-.16.3-.16.45.07s.08.23.15.38A2.93,2.93,0,0,1,59.47,104.24Z"/><path class="cls-17" d="M57.18,102.33h.08c.07,0,.15-.15.23,0a.26.26,0,0,1,0,.31h0C57.33,102.64,57.26,102.49,57.18,102.33Z"/><path class="cls-6" d="M60.68,105l.08-.08c.08-.07.15-.07.15.08v.15C60.84,105.15,60.76,105.07,60.68,105Z"/><path class="cls-11" d="M59.24,103.86v.22c-.15,0-.23-.15-.31-.22Z"/><path class="cls-11" d="M54.29,99.59c.07,0,.23,0,.23.08s-.08.07-.16,0Z"/><path class="cls-11" d="M53.45,98.75a.07.07,0,0,1-.08-.07h0c0-.08.08,0,.08.07Z"/><path class="cls-13" d="M64.41,104.69a.4.4,0,0,1,.39.31c0,.23,0,.15-.08.23l-.08.07c0,.08-.07.23-.23.15s0-.15.08-.22a.14.14,0,0,0-.08-.23h-.07a.66.66,0,0,0-.38-.08c-.08,0-.15-.15-.08-.23s.15-.15.23-.15.3-.15.23-.3,0-.08.07-.16.08-.07.16-.07.07,0,.07.07h0A3.75,3.75,0,0,1,64.41,104.69Z"/><path class="cls-13" d="M62.21,104.16c.15-.08.23-.23.38-.3h.15c.08,0,.08.07,0,.15a.36.36,0,0,0-.15.23c0,.07-.08.07-.08.15s.15.23,0,.3-.38.38-.68.31a.17.17,0,0,1-.16-.15c0-.08,0-.16.08-.16h0l.3-.07c.16-.23.16-.23.16-.46Z"/><path class="cls-13" d="M59.24,103.78h-.31v-.23c0-.07,0-.15-.15-.15s-.15-.08-.15-.15.15-.23.23-.38.15,0,.15.07a.51.51,0,0,0,.23.46C59.47,103.55,59.24,103.7,59.24,103.78Z"/><path class="cls-13" d="M58.86,102.56h-.31c-.07,0-.15,0-.15-.07s.08-.08.15-.16h.08a.36.36,0,0,0,.53-.07h.15a.37.37,0,0,1,.16.3.16.16,0,0,1-.16.15l-.45-.15Z"/><path class="cls-13" d="M57,101.11c-.08-.07,0-.22.08-.3h0l.45-.23c.08,0,.08,0,.15.08v.15a.37.37,0,0,1-.3.15c-.15,0-.23.15-.15.31h0c0,.07,0,.07-.08.07h0c-.07,0-.07-.07-.07-.15h0Z"/><path class="cls-13" d="M63,104.39c.08.23-.15.38-.22.53s-.23.08-.23,0,0-.15.07-.23h0a.43.43,0,0,0,.23-.45v-.08c0-.08,0-.08.08-.08h0c.07,0,.15,0,.15.08A.27.27,0,0,0,63,104.39Z"/><path class="cls-13" d="M58.32,100.43h0a3.84,3.84,0,0,0-.3.84l-.08.07c-.07,0-.07,0-.07-.07h0a1,1,0,0,1,.3-.76.22.22,0,0,0,.15-.08Z"/><path class="cls-13" d="M53.45,98.68a.08.08,0,0,0-.08-.08v-.07c0-.08-.15-.23,0-.31s.23,0,.39.08.07.07.07.15S53.6,98.68,53.45,98.68Z"/><path class="cls-13" d="M59.09,101.88V102a.4.4,0,0,1-.31.15H58.7a.07.07,0,0,1-.07-.07c0-.08.07-.15.07-.31s.08-.22.16-.15S59.09,101.72,59.09,101.88Z"/><path class="cls-13" d="M62.21,104.16a.47.47,0,0,0-.46,0c-.15.08-.23-.08-.23-.23s.08-.15.15-.15.23.23.46.08c.08,0,.08.07.15.15l-.07.15Z"/><path class="cls-13" d="M61.29,104c0,.07,0,.07-.07.07a.33.33,0,0,1-.38-.07c-.08-.08-.08-.15,0-.31s.15-.07.22-.07S61.22,103.86,61.29,104Z"/><path class="cls-13" d="M59.77,100.89c.08,0,.08,0,.15.07s.08.15.08.31v.15c-.08.08-.15,0-.15-.08s-.16-.15-.31-.15l-.07-.08V101Z"/><path class="cls-13" d="M63.58,104.47h0a.34.34,0,0,1,0-.39.29.29,0,0,1,.23-.07c.07,0,.07,0,.07.07a.51.51,0,0,1-.3.39Z"/><path class="cls-13" d="M59.77,103.25a.07.07,0,0,1-.08.07h0l-.22-.07c-.08,0-.16,0-.16-.16a.39.39,0,0,1,.16-.3c.07,0,.15,0,.15.08s.07.22.15.38Z"/><path class="cls-13" d="M65.63,103.86c0,.22-.07.38-.15.3s-.15-.08-.15-.3v-.16a.25.25,0,0,1,.15-.07c.08,0,.15,0,.15.07h0C65.56,103.78,65.63,103.78,65.63,103.86Z"/><path class="cls-13" d="M55.66,100.2h-.08c-.15,0-.15-.07-.15-.15s.08-.15.23-.15h0a.29.29,0,0,1,.15.07c.08.08.08.16,0,.16a.23.23,0,0,0-.15.07Z"/><path class="cls-13" d="M57.49,100.28v.15h-.08c-.08-.08-.08-.15-.15-.23a.18.18,0,0,1,.07-.3c.08,0,.16,0,.16.07h0C57.49,100.05,57.41,100.13,57.49,100.28Z"/><path class="cls-13" d="M65.18,105.38a.17.17,0,0,1-.16-.15.2.2,0,0,1,.23-.23.3.3,0,0,1,.23.07v.16A.42.42,0,0,1,65.18,105.38Z"/><path class="cls-13" d="M62.13,103.48H62v-.08h0a.27.27,0,0,1,.38-.08l.08.08v.15Z"/><path class="cls-13" d="M66.17,102.94a.78.78,0,0,1-.31.38h-.07v-.07a1,1,0,0,1,.22-.31c.08-.07.08-.07.16,0Z"/><path class="cls-13" d="M51,94.8v-.16c0-.07.08-.07.16-.07s.07,0,.07.07v.16c0,.15-.07.22-.15.22S51,95,51,94.8Z"/><path class="cls-13" d="M53.45,97H53.3c-.08,0-.08-.07-.08-.15s0-.08.08-.15h.3a.07.07,0,0,1,.08.07c0,.08,0,.08-.08.16S53.53,97.08,53.45,97Z"/><path class="cls-13" d="M69.44,104.47c0,.07-.08.07-.08.07h-.07a.42.42,0,0,1-.23-.38.08.08,0,0,1,.08-.08h.07C69.29,104.24,69.36,104.31,69.44,104.47Z"/><path class="cls-13" d="M58.78,101.19a.16.16,0,0,1-.15.15h0c-.15,0-.23-.07-.23-.15a.21.21,0,0,1,.23-.23C58.78,101,58.86,101.11,58.78,101.19Z"/><path class="cls-13" d="M59.85,102.26H60a.31.31,0,0,1,.23.07v.16a.31.31,0,0,1-.23.07l-.15-.07a.08.08,0,0,1-.08-.08c-.08-.15,0-.15.08-.15Z"/><path class="cls-13" d="M55.35,98.07c0,.08,0,.15-.07.15s-.15,0-.15-.07-.08-.08-.08-.16,0-.15.08-.15.15,0,.15.08S55.35,98,55.35,98.07Z"/><path class="cls-13" d="M63.5,104.69a.29.29,0,0,1-.07.16c0,.07-.08.07-.16.07h0a.16.16,0,0,1-.15-.15c0-.08.15-.23.23-.15S63.5,104.62,63.5,104.69Z"/><path class="cls-13" d="M60.76,102.33a.08.08,0,0,1-.08.08.26.26,0,0,1-.22.08.08.08,0,0,1-.08-.08h0a.16.16,0,0,1,.15-.15c.08-.08.15,0,.23.07Z"/><path class="cls-13" d="M55.89,99.06V99a.22.22,0,0,1,.3-.07s.08,0,.08.07v.16c-.08.07-.23.07-.38-.08Z"/><path class="cls-13" d="M53.3,97.84h-.15c-.08,0-.08-.08-.08-.15h0a.16.16,0,0,1,.15-.15c.08,0,.15,0,.15.07a.17.17,0,0,1,.16.15.28.28,0,0,1-.23.08Z"/><path class="cls-13" d="M65.79,104.39c.07,0,.22,0,.22.08v.15a.14.14,0,0,1-.22,0,.08.08,0,0,1-.08-.08.24.24,0,0,1-.08-.15Z"/><path class="cls-13" d="M60.15,102.94h.08a.17.17,0,0,1,.15.15h0c0,.08-.08.16-.15.08l-.16-.08c-.07,0-.07,0-.07-.07h0a.07.07,0,0,1,.07-.08Z"/><path class="cls-13" d="M52.69,96.55c0,.15-.15.3-.23.22s-.08,0-.08-.07.08-.23.16-.23h0c.07,0,.07,0,.15.08Z"/><path class="cls-13" d="M55.13,98.83c0,.08,0,.08-.08.08s-.3-.08-.23-.23a.16.16,0,0,1,.15-.15A.31.31,0,0,1,55.13,98.83Z"/><path class="cls-13" d="M59.62,101.72a.08.08,0,0,1-.08.08c-.07,0-.23.08-.23,0s-.07-.15,0-.3h0C59.39,101.5,59.54,101.65,59.62,101.72Z"/><path class="cls-13" d="M68.75,105.23c.16,0,.31.07.31.22s0,.08-.08.08h0c-.15,0-.23-.15-.3-.23Z"/><path class="cls-13" d="M64.41,102.41c0,.08,0,.08-.07.08s-.15,0-.15-.08-.08-.08-.08-.15h0c0-.08.15-.08.23,0S64.41,102.33,64.41,102.41Z"/><path class="cls-13" d="M67.31,103.55c.07,0,.07.08.07.15s-.07.16-.15.08a.17.17,0,0,1-.15-.15h0C67.16,103.63,67.23,103.55,67.31,103.55Z"/><path class="cls-13" d="M60.91,103.25c-.07,0-.07,0-.07-.08A.15.15,0,0,1,61,103c.07-.08.15-.08.15,0v.07C61.06,103.09,61,103.17,60.91,103.25Z"/><path class="cls-13" d="M65.1,103c-.08,0-.08,0-.08-.08s0-.07.08-.15l.15-.08h.15c0,.08,0,.16-.07.16S65.1,103,65.1,103Z"/><path class="cls-13" d="M56.65,100.05h0c-.08.08-.08.08-.15.08a.58.58,0,0,1-.16-.39h.08A.42.42,0,0,1,56.65,100.05Z"/><path class="cls-13" d="M55.28,99.21c.07,0,.15,0,.15.08a.17.17,0,0,1-.15.15h0a.16.16,0,0,1-.15-.15h0C55.13,99.21,55.2,99.21,55.28,99.21Z"/><path class="cls-13" d="M66.78,103.93c.07,0,.15.08.22.15v.08a.1.1,0,0,1-.15,0,.17.17,0,0,1-.15-.15h0C66.7,103.86,66.7,103.93,66.78,103.93Z"/><path class="cls-13" d="M54.06,98.45c.08,0,.15,0,.15.08s0,.15-.07.15h0c-.08,0-.16,0-.16-.08h0c0-.07,0-.15.08-.15Z"/><path class="cls-13" d="M60.38,101.72a.17.17,0,0,1-.15.16c-.08,0-.08-.08-.08-.16h0a.17.17,0,0,1,.15-.15h0c0,.08,0,.15.08.15Z"/><path class="cls-13" d="M67.16,104.92c0,.08,0,.08-.08.08a.16.16,0,0,1-.15-.15h0a.07.07,0,0,1,.07-.08c.08.08.16.08.16.15Z"/><path class="cls-13" d="M53.91,97.61c.07,0,.15,0,.15.08a.17.17,0,0,1-.15.15c-.08,0-.08,0-.08-.08h0C53.76,97.69,53.83,97.69,53.91,97.61Z"/><path class="cls-13" d="M53.91,99.14a.36.36,0,0,1,.15-.23c.08,0,.08,0,.08.07h0v.08l-.23.08Z"/><path class="cls-13" d="M64.64,103.7c.08,0,.08,0,.16.08s0,.15-.08.15-.08,0-.08-.07h0c-.07-.08-.07-.16,0-.16Z"/><path class="cls-13" d="M60.38,100.51c0,.07-.08.07-.15.07s-.08,0-.08-.07h0c0-.08.08-.08.23,0Z"/><path class="cls-13" d="M65.25,104.47c0,.07,0,.15-.15.15s-.08-.08-.08-.15a.08.08,0,0,1,.08-.08C65.18,104.31,65.18,104.39,65.25,104.47Z"/><path class="cls-13" d="M61.75,103.25c0,.07,0,.07-.08.07h0c-.07,0-.15,0-.15-.07s0-.08.08-.08h0C61.67,103.09,61.75,103.17,61.75,103.25Z"/><path class="cls-15" d="M50.33,95.48a.25.25,0,0,1-.23-.23A.21.21,0,0,1,50.33,95.48Z"/><path class="cls-15" d="M49.42,94.49a.2.2,0,0,1-.23-.23A.21.21,0,0,1,49.42,94.49Z"/><path class="cls-15" d="M49.72,94.8a.08.08,0,0,1-.08-.08.08.08,0,0,1,.08.08Z"/><path class="cls-15" d="M49.8,94.87c-.08,0-.08,0-.08-.07h0l.08.07Z"/><path class="cls-15" d="M49.87,95c-.07,0-.07,0-.07-.07S49.87,95,49.87,95Z"/><path class="cls-15" d="M49.49,94.57c-.07,0-.07-.08-.07-.08h0Z"/><path class="cls-15" d="M50,95.1h0C49.87,95,50,95,50,95.1Z"/><path class="cls-15" d="M50.1,95.18h0C50,95,50.1,95.1,50.1,95.18Z"/><path class="cls-15" d="M49.19,94.26h0C49.11,94.11,49.19,94.19,49.19,94.26Z"/><path class="cls-15" d="M49.11,94.11c-.08,0-.08,0-.08-.08h0A.08.08,0,0,1,49.11,94.11Z"/><path class="cls-15" d="M49,94C49,94,49,94,49,94h0c0-.08.07,0,.07.07Z"/><path class="cls-15" d="M48.88,93.88a.07.07,0,0,1-.07-.07.07.07,0,0,1,.07.07Z"/><path class="cls-15" d="M48.81,93.81a.08.08,0,0,1-.08-.08c.08,0,.08,0,.08.08Z"/><path class="cls-15" d="M48.73,93.73a.08.08,0,0,1-.08-.08h0c0-.07.08,0,.08.08Z"/><path class="cls-15" d="M49.64,94.72c-.07,0-.07-.08-.07-.08s.07,0,.07.08Z"/><text class="cls-19" transform="translate(7.59 14.74)">Sorry Trailer Is</text><text class="cls-19" transform="translate(14.99 39.11)">Not Available</text></g></g></g></g></svg>