<svg xmlns="http://www.w3.org/2000/svg" viewBox="0 0 408.63 408.58"><defs><style>.cls-1{fill:#c4c8f6;}.cls-2{fill:#e0e3fa;}.cls-3{fill:#e0e2f8;}.cls-4{fill:#fc4f28;}.cls-5{fill:#fc311a;}.cls-6{fill:#fc4f27;}.cls-7{fill:#fc3119;}.cls-8{fill:#c5c7f4;}</style></defs><g id="Layer_2" data-name="Layer 2"><g id="Layer_1-2" data-name="Layer 1"><path class="cls-1" d="M209.89,408.58H204.3V302.47a1,1,0,0,0-.05-.43c3.93-.48,7.92-.67,11.78-1.47,21.54-4.45,41-13.32,57.8-27.68C304,247.08,319.24,214.2,320,174.57a12,12,0,0,0-11.51-12.47h-.28c-6.36-.14-11.58,5-12.17,11.72-.57,6.47-.63,13-1.9,19.39-4.86,24.56-16.68,45.1-35.93,61.17-15.61,13.05-33.43,21.11-53.84,23.4l-.11-38.55a5.62,5.62,0,0,1,.09-.57c19-6.4,31.32-19.44,37.43-38.23,5.24-16.1,3.29-32.07-3.6-47.24-7-15.44-18.17-27.27-33.8-34.48a1.9,1.9,0,0,0-.09-.58q0-59.06.08-118.12a44.28,44.28,0,0,1,22.41,6.13,61.46,61.46,0,0,1,21.61,21.35c1.57,2.56,3,3.14,5.71,1.52a50.35,50.35,0,0,1,12.86-5.3c14.29-3.94,28.3-3.73,41,4.75C323.28,38.71,329.68,54,330.35,72c.14,4,1.54,5.55,5.3,5.4A48.55,48.55,0,0,1,352.08,80c17.08,5.35,29.61,15.55,33.88,33.65,3.2,13.59.64,26.63-5.38,39.06-2.62,5.41-2.6,5.26,2.28,8.44a61.37,61.37,0,0,1,20,21.21c2.79,4.89,4.07,10.29,5.77,15.57V210.7c-1.63,2.38-1.38,5.32-2.35,7.92-4.8,12.88-13.68,22.31-25,29.61-2.67,1.72-3.23,3.15-1.62,6a57,57,0,0,1,7.16,21.82c1.56,14.54-1.51,27.71-12.14,38.49-10.84,11-24.25,15.9-39.35,16.58-3.45.16-5.15.87-5,4.71.35,7.28-1.49,14.25-4.13,20.95-5.57,14.12-15.12,24.26-30,28.52-14.58,4.18-28.44,1.18-41.55-5.55-3.21-1.65-4.72-1.2-6.61,1.78a63,63,0,0,1-21.43,21C221.4,405.58,215.54,406.77,209.89,408.58Z"/><path class="cls-2" d="M204.35,0q0,59.07-.08,118.12a19.41,19.41,0,0,1-2.23-.74c-28.22-12.86-54.73-8-79,9.28-33.25,23.62-44.4,63.15-31.67,103,13.56,42.44,52.52,71.69,96.26,72.9,5.56.15,11.14,0,16.71-.07V408.58h-4c-1.67-1.47-3.83-.71-5.73-1.19-15.37-3.84-26.05-13.71-34.38-26.55-1.46-2.25-2.59-2.87-5.06-1.62a68.05,68.05,0,0,1-23.41,7.43c-16.67,1.84-30.72-3-41.42-16.14-8.26-10.16-11.78-22.13-12.12-35.08-.07-2.63-.51-4.25-3.69-4.31a59.89,59.89,0,0,1-30.59-8.7C30.16,314,22.42,301.88,21.55,285.66c-.61-11.28,2.21-21.86,7.53-31.74,1.45-2.68,1.1-4.18-1.52-5.79A59,59,0,0,1,5.89,225.91c-6.56-12-7.78-24.3-2.95-37.16,4.64-12.35,13.42-21.17,24.12-28.28,2.69-1.79,3.53-3.14,1.85-6.29a60.53,60.53,0,0,1-7.37-32.58c.64-10.39,4.14-19.67,11.39-27.31,11-11.55,24.8-16.37,40.37-16.9,2.75-.1,5-.08,4.93-3.88a56,56,0,0,1,8.14-29.94C94.66,30,106.7,22.29,122.87,21.46A59.38,59.38,0,0,1,154.59,29c2.51,1.36,4,1.2,5.48-1.34,3.11-5.49,7.46-10,12-14.29A47.57,47.57,0,0,1,204.35,0Z"/><path class="cls-3" d="M204.24,239.22q.06,19.28.11,38.55a2.83,2.83,0,0,1-.13.56c-7.3.16-14.64,1.07-21.89,0-33.63-5.08-56.69-23.6-67.92-55.66-7.08-20.2-6.42-40.48,5.94-58.84,14.18-21.07,34.23-30.76,59.7-28.16,9.08.92,16.85,5.31,24,10.71l.33,1-.18,64.74.1.33A35.41,35.41,0,0,1,181.18,218c-13.69-1.51-24.53-15.41-22.35-28.95,1.4-8.69,7.77-13.9,19-15.56,7.34-1.09,11.8-6.24,11.2-12.93s-6.15-11.09-13.4-10.74c-16.93.82-29.31,9.16-36.72,24.05-14.16,28.45,7.62,65,40.09,68.09C187.7,242.71,196,241.36,204.24,239.22Z"/><path class="cls-4" d="M204.1,146.35c-7.2-5.4-15-9.79-24-10.71-25.47-2.6-45.52,7.09-59.7,28.16-12.36,18.36-13,38.64-5.94,58.84,11.23,32.06,34.29,50.58,67.92,55.66,7.25,1.1,14.59.19,21.89,0V302a1,1,0,0,1,0,.43c-5.57,0-11.15.22-16.71.07-43.74-1.21-82.7-30.46-96.26-72.9-12.73-39.83-1.58-79.36,31.67-103,24.3-17.26,50.81-22.14,79-9.28a19.41,19.41,0,0,0,2.23.74,1.9,1.9,0,0,1,.09.58Q204.24,132.53,204.1,146.35Z"/><path class="cls-5" d="M204.26,302V278.33a2.27,2.27,0,0,1,.13-.56c20.36-2.25,38.23-10.35,53.85-23.4,19.25-16.07,31.07-36.61,35.93-61.17,1.27-6.39,1.33-12.92,1.9-19.39.59-6.74,5.81-11.86,12.17-11.72a12,12,0,0,1,11.8,12.2c0,.09,0,.19,0,.28-.74,39.63-16,72.51-46.15,98.32-16.76,14.36-36.26,23.23-57.8,27.68C212.18,301.37,208.19,301.56,204.26,302Z"/><path class="cls-6" d="M204.24,239.22c-8.25,2.14-16.54,3.49-25.16,2.67-32.47-3.1-54.25-39.64-40.09-68.09,7.41-14.89,19.79-23.23,36.72-24.05,7.25-.35,12.82,4.19,13.4,10.74s-3.86,11.84-11.2,12.93c-11.26,1.66-17.63,6.87-19,15.56-2.18,13.54,8.66,27.44,22.35,29a35.42,35.42,0,0,0,23.12-5.55v26.27C204.32,238.84,204.28,239,204.24,239.22Z"/><path class="cls-7" d="M204.33,238.65V212.38l-.1-.33a31.37,31.37,0,0,0,7.82-6.7c14.95-17.06,8.14-45.52-7.64-58l-.33-1q.13-13.82.26-27.65c15.63,7.21,26.77,19,33.8,34.48,6.89,15.17,8.84,31.14,3.6,47.24C235.65,219.21,223.29,232.25,204.33,238.65Z"/><path class="cls-8" d="M204.43,147.31c15.78,12.52,22.59,41,7.64,58a31.37,31.37,0,0,1-7.82,6.7Z"/></g></g></svg>