<?xml version="1.0" encoding="utf-8"?>
<!-- Generator: Adobe Illustrator 25.2.0, SVG Export Plug-In . SVG Version: 6.00 Build 0)  -->
<svg version="1.1" id="Layer_1" xmlns="http://www.w3.org/2000/svg" xmlns:xlink="http://www.w3.org/1999/xlink" x="0px" y="0px"
	 viewBox="0 0 409.6 409.6" style="enable-background:new 0 0 409.6 409.6;" xml:space="preserve">
<style type="text/css">
	.st0{fill:#C4C8F6;}
	.st1{fill:#E0E3FA;}
	.st2{fill:#FEFEFE;}
	.st3{fill:#E0E2F8;}
	.st4{fill:#FC4F28;}
	.st5{fill:#FC311A;}
	.st6{fill:#FC4F27;}
	.st7{fill:#FC3119;}
	.st8{fill:#C5C7F4;}
</style>
<path class="st0" d="M210.8,409.5h-5.6c0-35.4,0-70.7,0-106.1c0-0.1,0-0.3,0-0.4c3.9-0.5,7.9-0.7,11.8-1.5
	c21.5-4.5,41-13.3,57.8-27.7c30.1-25.8,45.4-58.7,46.2-98.3c0.3-6.6-4.9-12.2-11.5-12.5c-0.1,0-0.2,0-0.3,0
	c-6.4-0.1-11.6,5-12.2,11.7c-0.6,6.5-0.6,13-1.9,19.4c-4.9,24.6-16.7,45.1-35.9,61.2c-15.6,13.1-33.4,21.1-53.8,23.4l-0.1-38.6
	c0-0.2,0.1-0.4,0.1-0.6c19-6.4,31.3-19.4,37.4-38.2c5.2-16.1,3.3-32.1-3.6-47.2c-7-15.4-18.2-27.3-33.8-34.5c0-0.2,0-0.4-0.1-0.6
	c0-39.4,0-78.7,0.1-118.1c7.9,0,15.6,2.1,22.4,6.1c8.9,5.2,16.3,12.5,21.6,21.3c1.6,2.6,3,3.1,5.7,1.5c4-2.4,8.3-4.1,12.9-5.3
	c14.3-3.9,28.3-3.7,41,4.8c15.3,10.3,21.7,25.6,22.4,43.5c0.1,4,1.5,5.6,5.3,5.4c5.6-0.1,11.1,0.8,16.4,2.6
	c17.1,5.4,29.6,15.6,33.9,33.6c3.2,13.6,0.6,26.6-5.4,39.1c-2.6,5.4-2.6,5.3,2.3,8.4c8.3,5.4,15.1,12.6,20,21.2
	c2.8,4.9,4.1,10.3,5.8,15.6v12.8c-1.6,2.4-1.4,5.3-2.3,7.9c-4.8,12.9-13.7,22.3-25,29.6c-2.7,1.7-3.2,3.1-1.6,6
	c3.8,6.7,6.3,14.1,7.2,21.8c1.6,14.5-1.5,27.7-12.1,38.5c-10.8,11-24.2,15.9-39.3,16.6c-3.5,0.2-5.2,0.9-5,4.7
	c0.3,7.3-1.5,14.2-4.1,21c-5.6,14.1-15.1,24.3-30,28.5c-14.6,4.2-28.4,1.2-41.5-5.5c-3.2-1.7-4.7-1.2-6.6,1.8
	c-5.4,8.6-12.7,15.8-21.4,21C222.3,406.5,216.4,407.7,210.8,409.5z"/>
<path class="st1" d="M205.2,0.9c0,39.4,0,78.8-0.1,118.1c-0.8-0.2-1.5-0.4-2.2-0.7c-28.2-12.9-54.7-8-79,9.3
	c-33.2,23.6-44.4,63.1-31.7,103c13.6,42.4,52.5,71.7,96.3,72.9c5.6,0.1,11.1,0,16.7-0.1v106.1h-4c-1.7-1.5-3.8-0.7-5.7-1.2
	c-15.4-3.8-26-13.7-34.4-26.5c-1.5-2.2-2.6-2.9-5.1-1.6c-7.3,3.9-15.2,6.4-23.4,7.4c-16.7,1.8-30.7-3-41.4-16.1
	c-8.3-10.2-11.8-22.1-12.1-35.1c-0.1-2.6-0.5-4.2-3.7-4.3c-10.8-0.1-21.4-3.1-30.6-8.7c-13.8-8.4-21.5-20.5-22.4-36.8
	c-0.6-11.3,2.2-21.9,7.5-31.7c1.4-2.7,1.1-4.2-1.5-5.8c-9.1-5.3-16.6-13-21.7-22.2c-6.6-12-7.8-24.3-2.9-37.2
	c4.6-12.4,13.4-21.2,24.1-28.3c2.7-1.8,3.5-3.1,1.9-6.3c-5.5-10-8-21.2-7.4-32.6c0.6-10.4,4.1-19.7,11.4-27.3
	c11-11.6,24.8-16.4,40.4-16.9c2.8-0.1,5-0.1,4.9-3.9c-0.2-10.5,2.7-20.9,8.1-29.9c8.3-13.6,20.3-21.3,36.5-22.1
	c11.1-0.5,22.1,2.1,31.7,7.6c2.5,1.4,4,1.2,5.5-1.3c3.1-5.5,7.5-10,12-14.3C181.6,5.9,193.2,1.1,205.2,0.9z"/>
<path class="st2" d="M205.2,0.9c-12.1,0.2-23.6,5-32.3,13.4c-4.5,4.3-8.9,8.8-12,14.3c-1.4,2.5-3,2.7-5.5,1.3
	c-9.7-5.4-20.6-8-31.7-7.5c-16.2,0.8-28.2,8.5-36.5,22.1c-5.5,9-8.3,19.4-8.1,29.9c0,3.8-2.2,3.8-4.9,3.9
	c-15.6,0.5-29.4,5.4-40.4,16.9c-7.2,7.6-10.8,16.9-11.4,27.3c-0.6,11.3,1.9,22.6,7.4,32.6c1.7,3.1,0.8,4.5-1.9,6.3
	c-10.7,7.1-19.5,15.9-24.1,28.3c-4.8,12.9-3.6,25.2,2.9,37.2c5.1,9.2,12.6,16.9,21.7,22.2c2.6,1.6,3,3.1,1.5,5.8
	c-5.3,9.9-8.1,20.5-7.5,31.7c0.9,16.2,8.6,28.3,22.4,36.8c9.2,5.6,19.8,8.6,30.6,8.7c3.2,0.1,3.6,1.7,3.7,4.3
	c0.3,13,3.9,24.9,12.1,35.1c10.7,13.1,24.8,18,41.4,16.1c8.2-1,16.1-3.6,23.4-7.4c2.5-1.2,3.6-0.6,5.1,1.6
	c8.3,12.8,19,22.7,34.4,26.5c1.9,0.5,4.1-0.3,5.7,1.2c-66,0-131.9,0-197.9,0.1c-2.6,0-3.3-0.3-3.3-3.2C0.1,271.9,0.1,137.5,0,3
	C0,0.6,0.6,0,3,0c134.4,0.1,268.9,0.1,403.3,0c2.9,0,3.2,0.8,3.2,3.3c-0.1,65.2-0.1,130.3-0.1,195.5c-1.7-5.3-3-10.7-5.8-15.6
	c-4.9-8.6-11.7-15.9-20-21.2c-4.9-3.2-4.9-3-2.3-8.4c6-12.4,8.6-25.5,5.4-39.1c-4.3-18.1-16.8-28.3-33.9-33.6
	c-5.3-1.8-10.8-2.7-16.4-2.6c-3.8,0.1-5.2-1.4-5.3-5.4c-0.7-17.9-7.1-33.2-22.4-43.5c-12.7-8.5-26.7-8.7-41-4.8
	c-4.5,1.2-8.8,2.9-12.9,5.3c-2.7,1.6-4.1,1-5.7-1.5c-5.3-8.8-12.7-16.1-21.5-21.3C220.9,3.1,213.1,1,205.2,0.9z"/>
<path class="st3" d="M205.1,240.2c0,12.8,0.1,25.7,0.1,38.5c0,0.2-0.1,0.4-0.1,0.6c-7.3,0.2-14.6,1.1-21.9,0
	c-33.6-5.1-56.7-23.6-67.9-55.7c-7.1-20.2-6.4-40.5,5.9-58.8c14.2-21.1,34.2-30.8,59.7-28.2c9.1,0.9,16.9,5.3,24,10.7l0.3,1
	l-0.2,64.7l0.1,0.3c-6.8,4.5-15,6.4-23.1,5.5c-13.7-1.5-24.5-15.4-22.4-29c1.4-8.7,7.8-13.9,19-15.6c7.3-1.1,11.8-6.2,11.2-12.9
	s-6.1-11.1-13.4-10.7c-16.9,0.8-29.3,9.2-36.7,24c-14.2,28.5,7.6,65,40.1,68.1C188.6,243.7,196.9,242.3,205.1,240.2z"/>
<path class="st4" d="M205,147.3c-7.2-5.4-15-9.8-24-10.7c-25.5-2.6-45.5,7.1-59.7,28.2c-12.4,18.4-13,38.6-5.9,58.8
	c11.2,32.1,34.3,50.6,67.9,55.7c7.2,1.1,14.6,0.2,21.9,0c0,7.9,0,15.8,0,23.7c0,0.1,0.1,0.3,0,0.4c-5.6,0-11.1,0.2-16.7,0.1
	c-43.7-1.2-82.7-30.5-96.3-72.9c-12.7-39.8-1.6-79.4,31.7-103c24.3-17.3,50.8-22.1,79-9.3c0.7,0.3,1.5,0.5,2.2,0.7
	c0.1,0.2,0.1,0.4,0.1,0.6C205.2,128.8,205.1,138.1,205,147.3z"/>
<path class="st5" d="M205.2,303c0-7.9,0-15.8,0-23.7c0-0.2,0.1-0.4,0.1-0.6c20.4-2.2,38.2-10.4,53.9-23.4
	c19.2-16.1,31.1-36.6,35.9-61.2c1.3-6.4,1.3-12.9,1.9-19.4c0.6-6.7,5.8-11.9,12.2-11.7c6.6,0.1,11.9,5.6,11.8,12.2
	c0,0.1,0,0.2,0,0.3c-0.7,39.6-16,72.5-46.1,98.3c-16.8,14.4-36.3,23.2-57.8,27.7C213.1,302.3,209.1,302.5,205.2,303z"/>
<path class="st6" d="M205.1,240.2c-8.2,2.1-16.5,3.5-25.2,2.7c-32.5-3.1-54.2-39.6-40.1-68.1c7.4-14.9,19.8-23.2,36.7-24
	c7.2-0.4,12.8,4.2,13.4,10.7s-3.9,11.8-11.2,12.9c-11.3,1.7-17.6,6.9-19,15.6c-2.2,13.5,8.7,27.4,22.4,29c8.1,0.9,16.3-1.1,23.1-5.5
	c0,8.8,0,17.5,0,26.3C205.2,239.8,205.2,240,205.1,240.2z"/>
<path class="st7" d="M205.2,239.6c0-8.7,0-17.5,0-26.3l-0.1-0.3c3-1.8,5.6-4.1,7.8-6.7c15-17.1,8.1-45.5-7.6-58l-0.3-1
	c0.1-9.2,0.2-18.4,0.3-27.6c15.6,7.2,26.8,19,33.8,34.5c6.9,15.2,8.8,31.1,3.6,47.2C236.6,220.2,224.2,233.2,205.2,239.6z"/>
<path class="st8" d="M205.3,148.2c15.8,12.5,22.6,41,7.6,58c-2.2,2.6-4.9,4.9-7.8,6.7L205.3,148.2z"/>
<g>
	<path class="st0" d="M-247.2,476.5h-5.6c0-35.4,0-70.7,0-106.1c0-0.1,0-0.3,0-0.4c3.9-0.5,7.9-0.7,11.8-1.5
		c21.5-4.5,41-13.3,57.8-27.7c30.1-25.8,45.4-58.7,46.2-98.3c0.3-6.6-4.9-12.2-11.5-12.5c-0.1,0-0.2,0-0.3,0
		c-6.4-0.1-11.6,5-12.2,11.7c-0.6,6.5-0.6,13-1.9,19.4c-4.9,24.6-16.7,45.1-35.9,61.2c-15.6,13.1-33.4,21.1-53.8,23.4l-0.1-38.5
		c0-0.2,0.1-0.4,0.1-0.6c19-6.4,31.3-19.4,37.4-38.2c5.2-16.1,3.3-32.1-3.6-47.2c-7-15.4-18.2-27.3-33.8-34.5c0-0.2,0-0.4-0.1-0.6
		c0-39.4,0-78.7,0.1-118.1c7.9,0,15.6,2.1,22.4,6.1c8.9,5.2,16.3,12.5,21.6,21.3c1.6,2.6,3,3.1,5.7,1.5c4-2.4,8.3-4.1,12.9-5.3
		c14.3-3.9,28.3-3.7,41,4.8c15.3,10.3,21.7,25.6,22.4,43.5c0.1,4,1.5,5.6,5.3,5.4c5.6-0.1,11.1,0.8,16.4,2.6
		c17.1,5.4,29.6,15.6,33.9,33.6c3.2,13.6,0.6,26.6-5.4,39.1c-2.6,5.4-2.6,5.3,2.3,8.4c8.3,5.4,15.1,12.6,20,21.2
		c2.8,4.9,4.1,10.3,5.8,15.6v12.8c-1.6,2.4-1.4,5.3-2.3,7.9c-4.8,12.9-13.7,22.3-25,29.6c-2.7,1.7-3.2,3.2-1.6,6
		c3.8,6.7,6.3,14.1,7.2,21.8c1.6,14.5-1.5,27.7-12.1,38.5c-10.8,11-24.2,15.9-39.3,16.6c-3.5,0.2-5.2,0.9-5,4.7
		c0.3,7.3-1.5,14.2-4.1,21c-5.6,14.1-15.1,24.3-30,28.5c-14.6,4.2-28.4,1.2-41.5-5.5c-3.2-1.7-4.7-1.2-6.6,1.8
		c-5.4,8.6-12.7,15.8-21.4,21C-235.7,473.5-241.6,474.7-247.2,476.5z"/>
	<path class="st1" d="M-252.8,67.9c0,39.4,0,78.8-0.1,118.1c-0.8-0.2-1.5-0.4-2.2-0.7c-28.2-12.9-54.7-8-79,9.3
		c-33.2,23.6-44.4,63.2-31.7,103c13.6,42.4,52.5,71.7,96.3,72.9c5.6,0.1,11.1,0,16.7-0.1v106.1h-4c-1.7-1.5-3.8-0.7-5.7-1.2
		c-15.4-3.8-26-13.7-34.4-26.5c-1.5-2.2-2.6-2.9-5.1-1.6c-7.3,3.9-15.2,6.4-23.4,7.4c-16.7,1.8-30.7-3-41.4-16.1
		c-8.3-10.2-11.8-22.1-12.1-35.1c-0.1-2.6-0.5-4.2-3.7-4.3c-10.8-0.1-21.4-3.1-30.6-8.7c-13.8-8.4-21.5-20.5-22.4-36.8
		c-0.6-11.3,2.2-21.9,7.5-31.7c1.4-2.7,1.1-4.2-1.5-5.8c-9.1-5.3-16.6-13-21.7-22.2c-6.6-12-7.8-24.3-3-37.2
		c4.6-12.4,13.4-21.2,24.1-28.3c2.7-1.8,3.5-3.1,1.9-6.3c-5.5-10-8-21.2-7.4-32.6c0.6-10.4,4.1-19.7,11.4-27.3
		c11-11.6,24.8-16.4,40.4-16.9c2.8-0.1,5-0.1,4.9-3.9c-0.2-10.5,2.7-20.9,8.1-29.9c8.3-13.6,20.3-21.3,36.5-22.1
		c11.1-0.5,22.1,2.1,31.7,7.6c2.5,1.4,4,1.2,5.5-1.3c3.1-5.5,7.5-10,12-14.3C-276.4,72.9-264.8,68.1-252.8,67.9z"/>
	<path class="st3" d="M-252.9,307.2c0,12.8,0.1,25.7,0.1,38.5c0,0.2-0.1,0.4-0.1,0.6c-7.3,0.2-14.6,1.1-21.9,0
		c-33.6-5.1-56.7-23.6-67.9-55.7c-7.1-20.2-6.4-40.5,5.9-58.8c14.2-21.1,34.2-30.8,59.7-28.2c9.1,0.9,16.9,5.3,24,10.7l0.3,1
		l-0.2,64.7l0.1,0.3c-6.8,4.5-15,6.4-23.1,5.5c-13.7-1.5-24.5-15.4-22.4-29c1.4-8.7,7.8-13.9,19-15.6c7.3-1.1,11.8-6.2,11.2-12.9
		s-6.1-11.1-13.4-10.7c-16.9,0.8-29.3,9.2-36.7,24c-14.2,28.5,7.6,65,40.1,68.1C-269.4,310.7-261.1,309.3-252.9,307.2z"/>
	<path class="st4" d="M-253,214.3c-7.2-5.4-15-9.8-24-10.7c-25.5-2.6-45.5,7.1-59.7,28.2c-12.4,18.4-13,38.6-5.9,58.8
		c11.2,32.1,34.3,50.6,67.9,55.7c7.2,1.1,14.6,0.2,21.9,0c0,7.9,0,15.8,0,23.7c0,0.1,0.1,0.3,0,0.4c-5.6,0-11.1,0.2-16.7,0.1
		c-43.7-1.2-82.7-30.5-96.3-72.9c-12.7-39.8-1.6-79.4,31.7-103c24.3-17.3,50.8-22.1,79-9.3c0.7,0.3,1.5,0.5,2.2,0.7
		c0.1,0.2,0.1,0.4,0.1,0.6C-252.8,195.8-252.9,205.1-253,214.3z"/>
	<path class="st5" d="M-252.8,370c0-7.9,0-15.8,0-23.7c0-0.2,0.1-0.4,0.1-0.6c20.4-2.2,38.2-10.4,53.9-23.4
		c19.2-16.1,31.1-36.6,35.9-61.2c1.3-6.4,1.3-12.9,1.9-19.4c0.6-6.7,5.8-11.9,12.2-11.7c6.6,0.1,11.9,5.6,11.8,12.2
		c0,0.1,0,0.2,0,0.3c-0.7,39.6-16,72.5-46.1,98.3c-16.8,14.4-36.3,23.2-57.8,27.7C-244.9,369.3-248.9,369.5-252.8,370z"/>
	<path class="st6" d="M-252.9,307.2c-8.2,2.1-16.5,3.5-25.2,2.7c-32.5-3.1-54.2-39.6-40.1-68.1c7.4-14.9,19.8-23.2,36.7-24
		c7.2-0.4,12.8,4.2,13.4,10.7s-3.9,11.8-11.2,12.9c-11.3,1.7-17.6,6.9-19,15.6c-2.2,13.5,8.7,27.4,22.4,29
		c8.1,0.9,16.3-1.1,23.1-5.5c0,8.8,0,17.5,0,26.3C-252.8,306.8-252.8,307-252.9,307.2z"/>
	<path class="st7" d="M-252.8,306.6c0-8.7,0-17.5,0-26.3l-0.1-0.3c3-1.8,5.6-4.1,7.8-6.7c15-17.1,8.1-45.5-7.6-58l-0.3-1
		c0.1-9.2,0.2-18.4,0.3-27.6c15.6,7.2,26.8,19,33.8,34.5c6.9,15.2,8.8,31.1,3.6,47.2C-221.4,287.2-233.8,300.2-252.8,306.6z"/>
	<path class="st8" d="M-252.7,215.2c15.8,12.5,22.6,41,7.6,58c-2.2,2.6-4.9,4.9-7.8,6.7L-252.7,215.2z"/>
</g>
</svg>
